<svg xmlns="http://www.w3.org/2000/svg" width="1920" height="1080" viewBox="0 0 1920 1080">
<defs>
  <filter id="b2"><feGaussianBlur stdDeviation="2"/></filter>
  <filter id="b4"><feGaussianBlur stdDeviation="4"/></filter>
  <filter id="b9"><feGaussianBlur stdDeviation="9"/></filter>
  <filter id="b18"><feGaussianBlur stdDeviation="18"/></filter>
  <filter id="b40" x="-60%" y="-60%" width="220%" height="220%"><feGaussianBlur stdDeviation="40"/></filter>
  <filter id="glow" x="-40%" y="-40%" width="180%" height="180%">
    <feGaussianBlur stdDeviation="1.4" result="g"/>
    <feMerge><feMergeNode in="g"/><feMergeNode in="SourceGraphic"/></feMerge>
  </filter>
  <filter id="regolith" x="0" y="0" width="100%" height="100%">
    <feTurbulence type="fractalNoise" baseFrequency="0.011" numOctaves="5" seed="11" result="n"/>
    <feColorMatrix in="n" type="matrix" values="0 0 0 0 0.62  0 0 0 0 0.61  0 0 0 0 0.60  0 0 0 0.9 0"/>
  </filter>
  <filter id="regolithFine" x="0" y="0" width="100%" height="100%">
    <feTurbulence type="fractalNoise" baseFrequency="0.05" numOctaves="4" seed="29" result="n"/>
    <feColorMatrix in="n" type="matrix" values="0 0 0 0 0.62  0 0 0 0 0.61  0 0 0 0 0.60  0 0 0 0.9 0"/>
  </filter>
  
</defs>
<rect width="1920" height="1080" fill="#000204"/><g><circle cx="260.4" cy="826.0" r="0.84" fill="#EAF2FF" opacity="0.17"/><circle cx="1331.2" cy="634.5" r="2.04" fill="#FFE9C9" opacity="0.45"/><path d="M 1321.0 634.5 H 1341.5 M 1331.2 624.3 V 644.7" stroke="#FFE9C9" stroke-width="0.7" opacity="0.23"/><circle cx="740.6" cy="857.6" r="0.65" fill="#EAF2FF" opacity="0.12"/><circle cx="211.2" cy="65.9" r="0.68" fill="#BFD4FF" opacity="0.13"/><circle cx="375.5" cy="821.4" r="0.56" fill="#BFD4FF" opacity="0.10"/><circle cx="1242.6" cy="45.6" r="0.93" fill="#BFD4FF" opacity="0.19"/><circle cx="836.6" cy="928.9" r="0.70" fill="#EAF2FF" opacity="0.14"/><circle cx="1204.5" cy="73.7" r="0.51" fill="#EAF2FF" opacity="0.09"/><circle cx="1.8" cy="693.9" r="0.51" fill="#FFE9C9" opacity="0.09"/><circle cx="1839.3" cy="466.9" r="0.51" fill="#EAF2FF" opacity="0.09"/><circle cx="1445.1" cy="232.5" r="0.74" fill="#EAF2FF" opacity="0.15"/><circle cx="534.7" cy="653.0" r="1.99" fill="#EAF2FF" opacity="0.44"/><path d="M 524.8 653.0 H 544.7 M 534.7 643.1 V 663.0" stroke="#EAF2FF" stroke-width="0.7" opacity="0.22"/><circle cx="1463.5" cy="129.0" r="1.55" fill="#EAF2FF" opacity="0.34"/><circle cx="864.9" cy="946.8" r="0.63" fill="#EAF2FF" opacity="0.12"/><circle cx="646.3" cy="697.7" r="1.04" fill="#FFE9C9" opacity="0.22"/><circle cx="1489.4" cy="134.5" r="1.24" fill="#EAF2FF" opacity="0.26"/><circle cx="478.6" cy="658.0" r="1.15" fill="#EAF2FF" opacity="0.24"/><circle cx="365.9" cy="955.9" r="1.56" fill="#EAF2FF" opacity="0.34"/><circle cx="1069.0" cy="211.0" r="0.61" fill="#EAF2FF" opacity="0.12"/><circle cx="1047.7" cy="1037.0" r="1.50" fill="#EAF2FF" opacity="0.32"/><circle cx="327.9" cy="720.9" r="2.16" fill="#BFD4FF" opacity="0.48"/><path d="M 317.0 720.9 H 338.7 M 327.9 710.0 V 731.7" stroke="#BFD4FF" stroke-width="0.7" opacity="0.24"/><circle cx="737.6" cy="692.2" r="0.76" fill="#EAF2FF" opacity="0.15"/><circle cx="194.5" cy="969.4" r="0.95" fill="#EAF2FF" opacity="0.20"/><circle cx="750.7" cy="573.2" r="0.57" fill="#FFE9C9" opacity="0.11"/><circle cx="829.4" cy="771.7" r="0.74" fill="#EAF2FF" opacity="0.15"/><circle cx="957.0" cy="345.3" r="0.56" fill="#FFE9C9" opacity="0.10"/><circle cx="410.3" cy="913.7" r="1.79" fill="#EAF2FF" opacity="0.39"/><circle cx="455.1" cy="333.0" r="0.55" fill="#EAF2FF" opacity="0.10"/><circle cx="566.4" cy="1059.1" r="2.09" fill="#EAF2FF" opacity="0.46"/><path d="M 556.0 1059.1 H 576.8 M 566.4 1048.6 V 1069.5" stroke="#EAF2FF" stroke-width="0.7" opacity="0.23"/><circle cx="1516.7" cy="721.7" r="2.14" fill="#EAF2FF" opacity="0.47"/><path d="M 1506.0 721.7 H 1527.4 M 1516.7 711.1 V 732.4" stroke="#EAF2FF" stroke-width="0.7" opacity="0.24"/><circle cx="777.9" cy="625.2" r="1.09" fill="#EAF2FF" opacity="0.23"/><circle cx="713.1" cy="310.2" r="1.21" fill="#BFD4FF" opacity="0.26"/><circle cx="167.8" cy="446.0" r="0.74" fill="#BFD4FF" opacity="0.15"/><circle cx="1568.6" cy="641.6" r="0.57" fill="#EAF2FF" opacity="0.11"/><circle cx="468.4" cy="726.8" r="0.98" fill="#BFD4FF" opacity="0.20"/><circle cx="518.8" cy="418.8" r="0.50" fill="#EAF2FF" opacity="0.09"/><circle cx="872.4" cy="575.5" r="0.51" fill="#EAF2FF" opacity="0.09"/><circle cx="1561.3" cy="417.7" r="0.90" fill="#EAF2FF" opacity="0.18"/><circle cx="1193.4" cy="5.0" r="2.08" fill="#EAF2FF" opacity="0.46"/><path d="M 1183.0 5.0 H 1203.8 M 1193.4 -5.5 V 15.4" stroke="#EAF2FF" stroke-width="0.7" opacity="0.23"/><circle cx="1728.7" cy="577.2" r="0.94" fill="#EAF2FF" opacity="0.19"/><circle cx="1698.4" cy="626.0" r="0.51" fill="#EAF2FF" opacity="0.09"/><circle cx="99.5" cy="501.0" r="0.55" fill="#EAF2FF" opacity="0.10"/><circle cx="1760.9" cy="466.7" r="0.88" fill="#FFE9C9" opacity="0.18"/><circle cx="1195.7" cy="1005.9" r="1.02" fill="#EAF2FF" opacity="0.21"/><circle cx="308.4" cy="278.4" r="0.62" fill="#EAF2FF" opacity="0.12"/><circle cx="372.6" cy="439.8" r="0.57" fill="#EAF2FF" opacity="0.11"/><circle cx="1062.7" cy="177.9" r="1.06" fill="#FFE9C9" opacity="0.22"/><circle cx="545.6" cy="509.2" r="0.60" fill="#EAF2FF" opacity="0.11"/><circle cx="899.7" cy="754.5" r="0.51" fill="#EAF2FF" opacity="0.09"/><circle cx="853.2" cy="742.1" r="1.33" fill="#EAF2FF" opacity="0.28"/><circle cx="667.3" cy="294.5" r="0.53" fill="#EAF2FF" opacity="0.10"/><circle cx="782.6" cy="218.7" r="1.35" fill="#EAF2FF" opacity="0.29"/><circle cx="544.3" cy="992.6" r="0.52" fill="#EAF2FF" opacity="0.10"/><circle cx="96.8" cy="285.8" r="0.71" fill="#EAF2FF" opacity="0.14"/><circle cx="1325.3" cy="302.3" r="0.96" fill="#EAF2FF" opacity="0.20"/><circle cx="1656.7" cy="21.9" r="0.62" fill="#EAF2FF" opacity="0.12"/><circle cx="1823.6" cy="731.9" r="1.25" fill="#EAF2FF" opacity="0.27"/><circle cx="898.3" cy="598.6" r="0.50" fill="#EAF2FF" opacity="0.09"/><circle cx="1906.7" cy="655.4" r="1.57" fill="#EAF2FF" opacity="0.34"/><circle cx="1823.4" cy="890.8" r="0.59" fill="#EAF2FF" opacity="0.11"/><circle cx="282.7" cy="236.3" r="0.65" fill="#EAF2FF" opacity="0.13"/><circle cx="638.5" cy="515.7" r="0.87" fill="#EAF2FF" opacity="0.18"/><circle cx="1311.9" cy="578.7" r="0.92" fill="#EAF2FF" opacity="0.19"/><circle cx="845.0" cy="104.3" r="0.51" fill="#EAF2FF" opacity="0.09"/><circle cx="1037.0" cy="223.5" r="0.75" fill="#EAF2FF" opacity="0.15"/><circle cx="247.0" cy="401.5" r="0.59" fill="#EAF2FF" opacity="0.11"/><circle cx="1040.9" cy="382.4" r="0.50" fill="#FFE9C9" opacity="0.09"/><circle cx="153.7" cy="394.7" r="0.55" fill="#EAF2FF" opacity="0.10"/><circle cx="325.7" cy="439.9" r="1.41" fill="#EAF2FF" opacity="0.30"/><circle cx="1404.7" cy="719.9" r="0.74" fill="#EAF2FF" opacity="0.15"/><circle cx="150.2" cy="338.0" r="0.56" fill="#EAF2FF" opacity="0.10"/><circle cx="1160.3" cy="748.5" r="1.00" fill="#EAF2FF" opacity="0.21"/><circle cx="504.0" cy="397.1" r="0.51" fill="#EAF2FF" opacity="0.09"/><circle cx="248.8" cy="249.9" r="0.54" fill="#BFD4FF" opacity="0.10"/><circle cx="1188.3" cy="1051.4" r="1.70" fill="#EAF2FF" opacity="0.37"/><circle cx="146.3" cy="143.9" r="0.53" fill="#EAF2FF" opacity="0.10"/><circle cx="1245.7" cy="243.2" r="1.60" fill="#EAF2FF" opacity="0.35"/><circle cx="60.1" cy="899.4" r="0.71" fill="#FFE9C9" opacity="0.14"/><circle cx="655.1" cy="41.2" r="1.61" fill="#BFD4FF" opacity="0.35"/><circle cx="1067.2" cy="920.5" r="0.50" fill="#FFE9C9" opacity="0.09"/><circle cx="843.6" cy="851.6" r="1.85" fill="#EAF2FF" opacity="0.41"/><circle cx="1510.4" cy="849.3" r="0.65" fill="#EAF2FF" opacity="0.12"/><circle cx="1388.1" cy="121.5" r="0.71" fill="#EAF2FF" opacity="0.14"/><circle cx="162.1" cy="30.0" r="1.23" fill="#FFE9C9" opacity="0.26"/><circle cx="965.8" cy="729.6" r="1.44" fill="#EAF2FF" opacity="0.31"/><circle cx="315.6" cy="1065.4" r="0.58" fill="#EAF2FF" opacity="0.11"/><circle cx="1841.9" cy="785.3" r="0.50" fill="#EAF2FF" opacity="0.09"/><circle cx="601.5" cy="1015.8" r="0.50" fill="#EAF2FF" opacity="0.09"/><circle cx="621.3" cy="563.6" r="0.63" fill="#EAF2FF" opacity="0.12"/><circle cx="1164.6" cy="813.9" r="1.85" fill="#EAF2FF" opacity="0.41"/><circle cx="1781.8" cy="596.6" r="0.59" fill="#EAF2FF" opacity="0.11"/><circle cx="388.3" cy="309.7" r="0.70" fill="#FFE9C9" opacity="0.14"/><circle cx="1061.2" cy="902.2" r="0.98" fill="#BFD4FF" opacity="0.20"/><circle cx="331.3" cy="739.6" r="0.50" fill="#EAF2FF" opacity="0.09"/><circle cx="566.8" cy="160.9" r="0.50" fill="#EAF2FF" opacity="0.09"/><circle cx="28.9" cy="603.3" r="1.22" fill="#BFD4FF" opacity="0.26"/><circle cx="902.7" cy="715.0" r="1.06" fill="#FFE9C9" opacity="0.22"/><circle cx="1753.6" cy="839.1" r="0.55" fill="#EAF2FF" opacity="0.10"/><circle cx="924.7" cy="814.1" r="1.71" fill="#BFD4FF" opacity="0.38"/><circle cx="618.3" cy="1073.3" r="0.54" fill="#EAF2FF" opacity="0.10"/><circle cx="122.1" cy="219.1" r="0.51" fill="#EAF2FF" opacity="0.09"/><circle cx="20.9" cy="724.4" r="1.57" fill="#BFD4FF" opacity="0.34"/><circle cx="1164.7" cy="218.5" r="2.05" fill="#EAF2FF" opacity="0.45"/><path d="M 1154.4 218.5 H 1174.9 M 1164.7 208.2 V 228.7" stroke="#EAF2FF" stroke-width="0.7" opacity="0.23"/><circle cx="1254.1" cy="907.3" r="0.55" fill="#EAF2FF" opacity="0.10"/><circle cx="545.2" cy="759.9" r="0.79" fill="#EAF2FF" opacity="0.16"/><circle cx="1182.3" cy="540.7" r="0.50" fill="#EAF2FF" opacity="0.09"/><circle cx="297.5" cy="198.3" r="0.52" fill="#EAF2FF" opacity="0.09"/><circle cx="233.6" cy="90.8" r="0.62" fill="#FFE9C9" opacity="0.12"/><circle cx="215.3" cy="769.2" r="0.50" fill="#EAF2FF" opacity="0.09"/><circle cx="229.0" cy="97.1" r="1.95" fill="#EAF2FF" opacity="0.43"/><path d="M 219.2 97.1 H 238.7 M 229.0 87.4 V 106.9" stroke="#EAF2FF" stroke-width="0.7" opacity="0.22"/><circle cx="601.0" cy="45.6" r="1.64" fill="#EAF2FF" opacity="0.36"/><circle cx="349.2" cy="404.1" r="0.80" fill="#EAF2FF" opacity="0.16"/><circle cx="288.2" cy="874.5" r="1.50" fill="#EAF2FF" opacity="0.33"/><circle cx="30.8" cy="691.1" r="1.84" fill="#EAF2FF" opacity="0.40"/><circle cx="1334.5" cy="353.8" r="1.55" fill="#EAF2FF" opacity="0.34"/><circle cx="1810.0" cy="568.3" r="0.55" fill="#BFD4FF" opacity="0.10"/><circle cx="459.1" cy="823.9" r="0.51" fill="#EAF2FF" opacity="0.09"/><circle cx="647.2" cy="349.2" r="2.02" fill="#EAF2FF" opacity="0.45"/><path d="M 637.1 349.2 H 657.3 M 647.2 339.1 V 359.3" stroke="#EAF2FF" stroke-width="0.7" opacity="0.22"/><circle cx="797.8" cy="684.1" r="1.34" fill="#EAF2FF" opacity="0.29"/><circle cx="710.8" cy="384.2" r="1.88" fill="#EAF2FF" opacity="0.41"/><circle cx="523.2" cy="226.2" r="0.58" fill="#EAF2FF" opacity="0.11"/><circle cx="40.0" cy="14.4" r="0.94" fill="#EAF2FF" opacity="0.19"/><circle cx="410.1" cy="516.3" r="1.48" fill="#EAF2FF" opacity="0.32"/><circle cx="90.7" cy="741.3" r="0.55" fill="#EAF2FF" opacity="0.10"/><circle cx="399.1" cy="436.6" r="0.57" fill="#EAF2FF" opacity="0.11"/><circle cx="1588.9" cy="832.8" r="0.54" fill="#EAF2FF" opacity="0.10"/><circle cx="665.5" cy="997.6" r="2.05" fill="#EAF2FF" opacity="0.45"/><path d="M 655.3 997.6 H 675.8 M 665.5 987.3 V 1007.8" stroke="#EAF2FF" stroke-width="0.7" opacity="0.23"/><circle cx="1196.7" cy="997.6" r="1.39" fill="#EAF2FF" opacity="0.30"/><circle cx="1417.1" cy="606.2" r="0.86" fill="#EAF2FF" opacity="0.18"/><circle cx="1704.1" cy="77.2" r="1.39" fill="#EAF2FF" opacity="0.30"/><circle cx="1405.2" cy="1031.2" r="0.90" fill="#FFE9C9" opacity="0.18"/><circle cx="1501.9" cy="458.5" r="0.50" fill="#EAF2FF" opacity="0.09"/><circle cx="611.1" cy="485.6" r="0.87" fill="#EAF2FF" opacity="0.18"/><circle cx="651.6" cy="235.6" r="0.68" fill="#FFE9C9" opacity="0.13"/><circle cx="719.5" cy="491.8" r="0.91" fill="#EAF2FF" opacity="0.19"/><circle cx="1357.5" cy="931.0" r="1.20" fill="#BFD4FF" opacity="0.25"/><circle cx="1222.5" cy="501.4" r="0.60" fill="#EAF2FF" opacity="0.11"/><circle cx="1451.0" cy="457.8" r="0.51" fill="#EAF2FF" opacity="0.09"/><circle cx="867.6" cy="365.0" r="1.55" fill="#EAF2FF" opacity="0.34"/><circle cx="182.1" cy="1045.6" r="0.51" fill="#EAF2FF" opacity="0.09"/><circle cx="1297.8" cy="800.3" r="0.56" fill="#EAF2FF" opacity="0.10"/><circle cx="435.0" cy="629.4" r="0.52" fill="#EAF2FF" opacity="0.10"/><circle cx="207.2" cy="792.9" r="0.51" fill="#EAF2FF" opacity="0.09"/><circle cx="1185.8" cy="175.3" r="1.40" fill="#BFD4FF" opacity="0.30"/><circle cx="1505.3" cy="549.6" r="0.51" fill="#EAF2FF" opacity="0.09"/><circle cx="1502.9" cy="826.2" r="1.32" fill="#FFE9C9" opacity="0.28"/><circle cx="1314.2" cy="687.1" r="1.78" fill="#BFD4FF" opacity="0.39"/><circle cx="764.1" cy="1045.8" r="0.55" fill="#EAF2FF" opacity="0.10"/><circle cx="907.1" cy="1079.9" r="0.95" fill="#BFD4FF" opacity="0.20"/><circle cx="1527.2" cy="787.6" r="1.79" fill="#EAF2FF" opacity="0.39"/><circle cx="1096.3" cy="21.9" r="0.51" fill="#EAF2FF" opacity="0.09"/><circle cx="930.8" cy="608.8" r="0.50" fill="#EAF2FF" opacity="0.09"/><circle cx="1768.9" cy="784.2" r="2.13" fill="#EAF2FF" opacity="0.47"/><path d="M 1758.2 784.2 H 1779.6 M 1768.9 773.6 V 794.9" stroke="#EAF2FF" stroke-width="0.7" opacity="0.24"/><circle cx="153.2" cy="732.1" r="1.36" fill="#EAF2FF" opacity="0.29"/><circle cx="1253.1" cy="1044.2" r="1.17" fill="#EAF2FF" opacity="0.25"/><circle cx="780.9" cy="1040.1" r="1.35" fill="#EAF2FF" opacity="0.29"/><circle cx="368.4" cy="289.6" r="1.50" fill="#EAF2FF" opacity="0.33"/><circle cx="1300.6" cy="95.5" r="0.87" fill="#EAF2FF" opacity="0.18"/><circle cx="1303.1" cy="21.9" r="0.64" fill="#EAF2FF" opacity="0.12"/><circle cx="488.1" cy="127.0" r="0.56" fill="#EAF2FF" opacity="0.10"/><circle cx="952.8" cy="837.5" r="0.80" fill="#EAF2FF" opacity="0.16"/><circle cx="922.7" cy="854.0" r="1.24" fill="#EAF2FF" opacity="0.26"/><circle cx="301.1" cy="840.1" r="0.54" fill="#BFD4FF" opacity="0.10"/><circle cx="1433.5" cy="1031.4" r="0.79" fill="#EAF2FF" opacity="0.16"/><circle cx="1633.5" cy="718.5" r="1.37" fill="#FFE9C9" opacity="0.30"/><circle cx="1771.0" cy="681.3" r="1.76" fill="#EAF2FF" opacity="0.39"/><circle cx="354.4" cy="434.5" r="0.60" fill="#EAF2FF" opacity="0.11"/><circle cx="1201.1" cy="194.9" r="1.39" fill="#EAF2FF" opacity="0.30"/><circle cx="1428.8" cy="52.5" r="0.65" fill="#EAF2FF" opacity="0.13"/><circle cx="1854.6" cy="643.3" r="0.52" fill="#EAF2FF" opacity="0.09"/><circle cx="712.6" cy="71.3" r="0.70" fill="#EAF2FF" opacity="0.14"/><circle cx="1443.6" cy="536.4" r="0.58" fill="#EAF2FF" opacity="0.11"/><circle cx="472.6" cy="872.2" r="0.51" fill="#EAF2FF" opacity="0.09"/><circle cx="1169.7" cy="434.9" r="0.55" fill="#BFD4FF" opacity="0.10"/><circle cx="1260.4" cy="628.4" r="1.47" fill="#EAF2FF" opacity="0.32"/><circle cx="1581.0" cy="118.5" r="0.95" fill="#EAF2FF" opacity="0.20"/><circle cx="204.4" cy="924.5" r="1.72" fill="#EAF2FF" opacity="0.38"/><circle cx="1810.7" cy="135.5" r="1.27" fill="#EAF2FF" opacity="0.27"/><circle cx="1140.7" cy="312.7" r="0.74" fill="#FFE9C9" opacity="0.15"/><circle cx="579.2" cy="1069.4" r="1.07" fill="#FFE9C9" opacity="0.22"/><circle cx="538.6" cy="542.1" r="0.61" fill="#EAF2FF" opacity="0.11"/><circle cx="1798.3" cy="385.1" r="1.68" fill="#EAF2FF" opacity="0.37"/><circle cx="780.8" cy="486.9" r="0.52" fill="#BFD4FF" opacity="0.09"/><circle cx="717.0" cy="334.1" r="0.50" fill="#EAF2FF" opacity="0.09"/><circle cx="338.3" cy="824.1" r="0.63" fill="#EAF2FF" opacity="0.12"/><circle cx="50.4" cy="398.5" r="0.76" fill="#EAF2FF" opacity="0.15"/><circle cx="573.0" cy="85.0" r="0.52" fill="#EAF2FF" opacity="0.09"/><circle cx="976.7" cy="1068.3" r="0.50" fill="#EAF2FF" opacity="0.09"/><circle cx="270.5" cy="345.5" r="0.83" fill="#EAF2FF" opacity="0.17"/><circle cx="1567.4" cy="429.6" r="0.52" fill="#EAF2FF" opacity="0.10"/><circle cx="104.5" cy="1032.4" r="1.06" fill="#BFD4FF" opacity="0.22"/><circle cx="1421.0" cy="808.7" r="1.35" fill="#EAF2FF" opacity="0.29"/><circle cx="758.8" cy="706.5" r="0.50" fill="#EAF2FF" opacity="0.09"/><circle cx="662.3" cy="994.4" r="0.51" fill="#EAF2FF" opacity="0.09"/><circle cx="1860.5" cy="778.4" r="0.50" fill="#EAF2FF" opacity="0.09"/><circle cx="1343.8" cy="209.8" r="0.73" fill="#EAF2FF" opacity="0.14"/><circle cx="1415.6" cy="748.2" r="1.62" fill="#EAF2FF" opacity="0.35"/><circle cx="443.5" cy="347.5" r="0.50" fill="#EAF2FF" opacity="0.09"/><circle cx="1163.6" cy="764.8" r="0.63" fill="#EAF2FF" opacity="0.12"/><circle cx="385.0" cy="651.4" r="1.35" fill="#EAF2FF" opacity="0.29"/><circle cx="877.2" cy="801.1" r="0.50" fill="#EAF2FF" opacity="0.09"/><circle cx="1275.8" cy="304.7" r="0.86" fill="#FFE9C9" opacity="0.17"/><circle cx="357.3" cy="984.6" r="2.12" fill="#EAF2FF" opacity="0.47"/><path d="M 346.7 984.6 H 367.9 M 357.3 974.0 V 995.2" stroke="#EAF2FF" stroke-width="0.7" opacity="0.24"/><circle cx="1705.3" cy="797.8" r="0.75" fill="#EAF2FF" opacity="0.15"/><circle cx="770.0" cy="918.9" r="1.13" fill="#EAF2FF" opacity="0.24"/><circle cx="663.3" cy="185.2" r="0.50" fill="#EAF2FF" opacity="0.09"/><circle cx="31.6" cy="605.0" r="0.95" fill="#FFE9C9" opacity="0.20"/><circle cx="717.6" cy="36.1" r="0.54" fill="#EAF2FF" opacity="0.10"/><circle cx="1837.3" cy="660.6" r="0.56" fill="#EAF2FF" opacity="0.10"/><circle cx="18.0" cy="873.6" r="0.52" fill="#EAF2FF" opacity="0.09"/><circle cx="184.9" cy="648.1" r="1.92" fill="#EAF2FF" opacity="0.42"/><path d="M 175.3 648.1 H 194.5 M 184.9 638.5 V 657.7" stroke="#EAF2FF" stroke-width="0.7" opacity="0.21"/><circle cx="1505.4" cy="203.3" r="0.60" fill="#FFE9C9" opacity="0.11"/><circle cx="178.0" cy="572.4" r="1.53" fill="#EAF2FF" opacity="0.33"/><circle cx="1903.1" cy="138.6" r="0.57" fill="#EAF2FF" opacity="0.11"/><circle cx="472.7" cy="284.4" r="1.76" fill="#EAF2FF" opacity="0.39"/><circle cx="1776.3" cy="514.9" r="0.76" fill="#EAF2FF" opacity="0.15"/><circle cx="120.0" cy="133.3" r="0.63" fill="#EAF2FF" opacity="0.12"/><circle cx="94.2" cy="94.9" r="1.03" fill="#EAF2FF" opacity="0.21"/><circle cx="264.4" cy="436.1" r="0.51" fill="#EAF2FF" opacity="0.09"/><circle cx="1797.8" cy="630.2" r="1.02" fill="#EAF2FF" opacity="0.21"/><circle cx="1228.3" cy="477.2" r="0.53" fill="#EAF2FF" opacity="0.10"/><circle cx="1040.2" cy="888.0" r="0.71" fill="#EAF2FF" opacity="0.14"/><circle cx="381.1" cy="332.9" r="0.71" fill="#EAF2FF" opacity="0.14"/><circle cx="1392.0" cy="903.0" r="0.53" fill="#EAF2FF" opacity="0.10"/><circle cx="81.2" cy="839.7" r="1.00" fill="#EAF2FF" opacity="0.21"/><circle cx="40.1" cy="521.3" r="1.64" fill="#EAF2FF" opacity="0.36"/><circle cx="325.1" cy="768.6" r="0.88" fill="#FFE9C9" opacity="0.18"/><circle cx="412.8" cy="185.9" r="0.50" fill="#FFE9C9" opacity="0.09"/><circle cx="1340.5" cy="243.5" r="0.70" fill="#EAF2FF" opacity="0.14"/><circle cx="254.7" cy="667.6" r="0.50" fill="#FFE9C9" opacity="0.09"/><circle cx="1078.4" cy="7.1" r="1.60" fill="#EAF2FF" opacity="0.35"/><circle cx="221.4" cy="243.0" r="0.63" fill="#EAF2FF" opacity="0.12"/><circle cx="332.5" cy="110.8" r="0.50" fill="#EAF2FF" opacity="0.09"/><circle cx="1781.2" cy="480.5" r="0.52" fill="#EAF2FF" opacity="0.09"/><circle cx="1388.4" cy="897.5" r="1.20" fill="#FFE9C9" opacity="0.25"/><circle cx="950.3" cy="812.4" r="0.92" fill="#FFE9C9" opacity="0.19"/><circle cx="1401.9" cy="232.1" r="1.43" fill="#EAF2FF" opacity="0.31"/><circle cx="1581.2" cy="839.1" r="1.82" fill="#EAF2FF" opacity="0.40"/><circle cx="1288.4" cy="768.2" r="1.42" fill="#EAF2FF" opacity="0.31"/><circle cx="312.7" cy="546.0" r="1.81" fill="#EAF2FF" opacity="0.40"/></g><text x="960" y="92" font-family="DejaVu Sans Mono, Liberation Mono, monospace" font-size="40" font-weight="bold" fill="#BFE7FF" text-anchor="middle" opacity="1" filter="url(#glow)" letter-spacing="14">MOON LANDING</text><text x="960" y="124" font-family="DejaVu Sans Mono, Liberation Mono, monospace" font-size="17" fill="rgba(191,231,255,0.55)" text-anchor="middle" opacity="1" letter-spacing="10">PRE-FLIGHT</text><rect x="90" y="180" width="540" height="600" fill="rgba(8,14,22,0.50)" rx="3"/><path d="M 90 194 V 180 H 104" stroke="#BFE7FF" stroke-width="1.5" fill="none" opacity="0.7"/><path d="M 616 180 H 630 V 194" stroke="#BFE7FF" stroke-width="1.5" fill="none" opacity="0.7"/><path d="M 630 766 V 780 H 616" stroke="#BFE7FF" stroke-width="1.5" fill="none" opacity="0.7"/><path d="M 104 780 H 90 V 766" stroke="#BFE7FF" stroke-width="1.5" fill="none" opacity="0.7"/><text x="116" y="220" font-family="DejaVu Sans Mono, Liberation Mono, monospace" font-size="16" fill="rgba(191,231,255,0.30)" text-anchor="start" opacity="1">1 · SITE</text><rect x="108" y="228" width="380" height="48" fill="rgba(191,231,255,0.08)" stroke="#BFE7FF" stroke-width="1"/><text x="124" y="252" font-family="DejaVu Sans Mono, Liberation Mono, monospace" font-size="18" font-weight="bold" fill="#BFE7FF" text-anchor="start" opacity="1">TRANQUILITY BASE</text><text x="124" y="270" font-family="DejaVu Sans Mono, Liberation Mono, monospace" font-size="13" fill="rgba(191,231,255,0.30)" text-anchor="start" opacity="1">land where it began · forgiving</text><text x="124" y="314" font-family="DejaVu Sans Mono, Liberation Mono, monospace" font-size="18" fill="rgba(191,231,255,0.55)" text-anchor="start" opacity="1">HADLEY-APENNINE</text><text x="124" y="332" font-family="DejaVu Sans Mono, Liberation Mono, monospace" font-size="13" fill="rgba(191,231,255,0.30)" text-anchor="start" opacity="1">4 km mountain wall + rille</text><text x="124" y="376" font-family="DejaVu Sans Mono, Liberation Mono, monospace" font-size="18" fill="rgba(191,231,255,0.55)" text-anchor="start" opacity="1">ARISTARCHUS PLATEAU</text><text x="124" y="394" font-family="DejaVu Sans Mono, Liberation Mono, monospace" font-size="13" fill="rgba(191,231,255,0.30)" text-anchor="start" opacity="1">the brightest ground</text><text x="124" y="438" font-family="DejaVu Sans Mono, Liberation Mono, monospace" font-size="18" fill="rgba(191,231,255,0.55)" text-anchor="start" opacity="1">TYCHO CENTRAL PEAK</text><text x="124" y="456" font-family="DejaVu Sans Mono, Liberation Mono, monospace" font-size="13" fill="rgba(191,231,255,0.30)" text-anchor="start" opacity="1">boulders. everywhere.</text><text x="124" y="500" font-family="DejaVu Sans Mono, Liberation Mono, monospace" font-size="18" fill="rgba(191,231,255,0.55)" text-anchor="start" opacity="1">SHACKLETON RIM</text><text x="124" y="518" font-family="DejaVu Sans Mono, Liberation Mono, monospace" font-size="13" fill="rgba(191,231,255,0.30)" text-anchor="start" opacity="1">eternal sunset · -240°C below</text><text x="124" y="562" font-family="DejaVu Sans Mono, Liberation Mono, monospace" font-size="18" fill="rgba(191,231,255,0.55)" text-anchor="start" opacity="1">FREE DESCENT</text><text x="124" y="580" font-family="DejaVu Sans Mono, Liberation Mono, monospace" font-size="13" fill="rgba(191,231,255,0.30)" text-anchor="start" opacity="1">pick any point from orbit</text><circle cx="555" cy="430" r="58" fill="#84848A"/><path d="M570.5 414.0 L568.4 425.8 L555.0 432.9 L540.6 426.1 L527.8 426.6 L521.9 418.5 L526.3 410.5 L522.1 396.7 L538.8 392.7 L554.4 396.1 L561.1 405.6 L571.5 414.0 Z" fill="#55565E" opacity="0.8" filter="url(#b4)"/><path d="M592.6 440.0 L591.7 447.7 L582.6 452.1 L573.4 448.1 L564.3 448.9 L555.1 444.2 L561.3 437.1 L563.2 430.2 L572.1 425.5 L584.3 425.3 L587.6 434.2 L595.6 440.0 Z" fill="#5A5B63" opacity="0.7" filter="url(#b4)"/><circle cx="555" cy="430" r="58" fill="none" stroke="rgba(191,231,255,0.55)" stroke-width="1"/><circle cx="573" cy="422" r="5" fill="#7CE0A2" filter="url(#glow)"/><circle cx="546" cy="404" r="3" fill="rgba(191,231,255,0.30)"/><circle cx="517" cy="416" r="3" fill="rgba(191,231,255,0.30)"/><circle cx="543" cy="468" r="3" fill="rgba(191,231,255,0.30)"/><circle cx="557" cy="485" r="3" fill="rgba(191,231,255,0.30)"/><rect x="690" y="180" width="540" height="290" fill="rgba(8,14,22,0.50)" rx="3"/><path d="M 690 194 V 180 H 704" stroke="#BFE7FF" stroke-width="1.5" fill="none" opacity="0.7"/><path d="M 1216 180 H 1230 V 194" stroke="#BFE7FF" stroke-width="1.5" fill="none" opacity="0.7"/><path d="M 1230 456 V 470 H 1216" stroke="#BFE7FF" stroke-width="1.5" fill="none" opacity="0.7"/><path d="M 704 470 H 690 V 456" stroke="#BFE7FF" stroke-width="1.5" fill="none" opacity="0.7"/><text x="716" y="220" font-family="DejaVu Sans Mono, Liberation Mono, monospace" font-size="16" fill="rgba(191,231,255,0.30)" text-anchor="start" opacity="1">2 · LIGHT</text><text x="716" y="258" font-family="DejaVu Sans Mono, Liberation Mono, monospace" font-size="18" fill="#BFE7FF" text-anchor="start" opacity="1">DATE  2026-06-11 19:40 UTC</text><text x="716" y="284" font-family="DejaVu Sans Mono, Liberation Mono, monospace" font-size="14" fill="rgba(191,231,255,0.30)" text-anchor="start" opacity="1">NEXT GOOD LIGHT IN 2 D 4 H</text><path d="M 740 420 A 110 110 0 0 1 960 420" stroke="rgba(191,231,255,0.55)" stroke-width="1.5" fill="none"/><line x1="714" y1="420" x2="986" y2="420" stroke="rgba(191,231,255,0.30)" stroke-width="1"/><circle cx="741.8" cy="400.3" r="9" fill="#FFB75C" filter="url(#glow)"/><text x="759.8" y="404.3" font-family="DejaVu Sans Mono, Liberation Mono, monospace" font-size="15" font-weight="bold" fill="#FFB75C" text-anchor="start" opacity="1">SUN 10.3° — BEST LIGHT *</text><text x="716" y="452" font-family="DejaVu Sans Mono, Liberation Mono, monospace" font-size="13" fill="rgba(191,231,255,0.30)" text-anchor="start" opacity="1">LONG SHADOWS · APOLLO LANDED AT 5-14°</text><g><circle cx="1150" cy="410" r="49.3" fill="#7FB4FF" opacity="0.10" filter="url(#b18)"/><clipPath id="earthClip9"><circle cx="1150" cy="410" r="34"/></clipPath><g clip-path="url(#earthClip9)"><circle cx="1150" cy="410" r="34" fill="#2E6FD8"/><circle cx="1158.5" cy="401.5" r="32.3" fill="#5FA8F0" opacity="0.5" filter="url(#b9)"/><ellipse cx="1155.0" cy="425.1" rx="8.4" ry="8.1" fill="#7A8C5A" opacity="0.55" filter="url(#b4)" transform="rotate(65.1 1150 410)"/><ellipse cx="1148.2" cy="405.4" rx="13.7" ry="5.3" fill="#7A8C5A" opacity="0.55" filter="url(#b4)" transform="rotate(56.9 1150 410)"/><ellipse cx="1146.5" cy="399.6" rx="9.4" ry="8.6" fill="#7A8C5A" opacity="0.55" filter="url(#b4)" transform="rotate(25.8 1150 410)"/><ellipse cx="1148.0" cy="393.8" rx="13.9" ry="3.5" fill="#FFFFFF" opacity="0.77" filter="url(#b2)" transform="rotate(18.3 1148.0 393.8)"/><ellipse cx="1128.6" cy="416.2" rx="12.1" ry="3.8" fill="#FFFFFF" opacity="0.60" filter="url(#b2)" transform="rotate(-22.6 1128.6 416.2)"/><ellipse cx="1153.7" cy="406.3" rx="15.6" ry="3.4" fill="#FFFFFF" opacity="0.52" filter="url(#b2)" transform="rotate(16.7 1153.7 406.3)"/><ellipse cx="1148.6" cy="405.2" rx="10.9" ry="3.4" fill="#FFFFFF" opacity="0.59" filter="url(#b2)" transform="rotate(7.9 1148.6 405.2)"/><ellipse cx="1146.3" cy="423.6" rx="20.0" ry="3.5" fill="#FFFFFF" opacity="0.55" filter="url(#b2)" transform="rotate(0.9 1146.3 423.6)"/><ellipse cx="1143.8" cy="422.2" rx="18.4" ry="3.6" fill="#FFFFFF" opacity="0.68" filter="url(#b2)" transform="rotate(1.7 1143.8 422.2)"/><circle cx="1097.3" cy="410" r="48.3" fill="#000208" opacity="0.96" filter="url(#b2)"/></g><circle cx="1150" cy="410" r="34.8" fill="none" stroke="#9FD0FF" stroke-width="1.2" opacity="0.45" filter="url(#b2)"/></g><text x="1150" y="462" font-family="DejaVu Sans Mono, Liberation Mono, monospace" font-size="13" fill="rgba(191,231,255,0.30)" text-anchor="middle" opacity="1">EARTH: WAXING GIBBOUS 78%</text><rect x="690" y="500" width="540" height="280" fill="rgba(8,14,22,0.50)" rx="3"/><path d="M 690 514 V 500 H 704" stroke="#BFE7FF" stroke-width="1.5" fill="none" opacity="0.7"/><path d="M 1216 500 H 1230 V 514" stroke="#BFE7FF" stroke-width="1.5" fill="none" opacity="0.7"/><path d="M 1230 766 V 780 H 1216" stroke="#BFE7FF" stroke-width="1.5" fill="none" opacity="0.7"/><path d="M 704 780 H 690 V 766" stroke="#BFE7FF" stroke-width="1.5" fill="none" opacity="0.7"/><text x="716" y="540" font-family="DejaVu Sans Mono, Liberation Mono, monospace" font-size="16" fill="rgba(191,231,255,0.30)" text-anchor="start" opacity="1">3 · SEAT</text><text x="728" y="572" font-family="DejaVu Sans Mono, Liberation Mono, monospace" font-size="18" fill="rgba(191,231,255,0.55)" text-anchor="start" opacity="1">WINDOW SEAT</text><text x="728" y="592" font-family="DejaVu Sans Mono, Liberation Mono, monospace" font-size="13" fill="rgba(191,231,255,0.30)" text-anchor="start" opacity="1">just look. guidance flies. cannot fail.</text><rect x="708" y="612" width="504" height="52" fill="rgba(124,224,162,0.07)" stroke="#7CE0A2" stroke-width="1"/><text x="728" y="636" font-family="DejaVu Sans Mono, Liberation Mono, monospace" font-size="18" font-weight="bold" fill="#7CE0A2" text-anchor="start" opacity="1">RIGHT SEAT</text><text x="728" y="656" font-family="DejaVu Sans Mono, Liberation Mono, monospace" font-size="13" fill="rgba(191,231,255,0.30)" text-anchor="start" opacity="1">steer the ride · pick the pad · cannot die</text><text x="728" y="700" font-family="DejaVu Sans Mono, Liberation Mono, monospace" font-size="18" fill="rgba(191,231,255,0.55)" text-anchor="start" opacity="1">LEFT SEAT</text><text x="728" y="720" font-family="DejaVu Sans Mono, Liberation Mono, monospace" font-size="13" fill="rgba(191,231,255,0.30)" text-anchor="start" opacity="1">stick, throttle, fuel. you can absolutely crash.</text><rect x="1290" y="180" width="540" height="600" fill="rgba(8,14,22,0.50)" rx="3"/><path d="M 1290 194 V 180 H 1304" stroke="#BFE7FF" stroke-width="1.5" fill="none" opacity="0.7"/><path d="M 1816 180 H 1830 V 194" stroke="#BFE7FF" stroke-width="1.5" fill="none" opacity="0.7"/><path d="M 1830 766 V 780 H 1816" stroke="#BFE7FF" stroke-width="1.5" fill="none" opacity="0.7"/><path d="M 1304 780 H 1290 V 766" stroke="#BFE7FF" stroke-width="1.5" fill="none" opacity="0.7"/><text x="1316" y="220" font-family="DejaVu Sans Mono, Liberation Mono, monospace" font-size="16" fill="rgba(191,231,255,0.30)" text-anchor="start" opacity="1">PRE-FLIGHT CHECKLIST</text><text x="1316" y="262" font-family="DejaVu Sans Mono, Liberation Mono, monospace" font-size="15" fill="rgba(191,231,255,0.55)" text-anchor="start" opacity="1">MODE CHUNK (0.2 MB)</text><text x="1804" y="262" font-family="DejaVu Sans Mono, Liberation Mono, monospace" font-size="15" font-weight="bold" fill="#7CE0A2" text-anchor="end" opacity="1">GO</text><line x1="1316" y1="274" x2="1804" y2="274" stroke="rgba(191,231,255,0.30)" stroke-width="0.6"/><text x="1316" y="306" font-family="DejaVu Sans Mono, Liberation Mono, monospace" font-size="15" fill="rgba(191,231,255,0.55)" text-anchor="start" opacity="1">STAR CATALOG + MILKY WAY (9 MB)</text><text x="1804" y="306" font-family="DejaVu Sans Mono, Liberation Mono, monospace" font-size="15" font-weight="bold" fill="#7CE0A2" text-anchor="end" opacity="1">GO</text><line x1="1316" y1="318" x2="1804" y2="318" stroke="rgba(191,231,255,0.30)" stroke-width="0.6"/><text x="1316" y="350" font-family="DejaVu Sans Mono, Liberation Mono, monospace" font-size="15" fill="rgba(191,231,255,0.55)" text-anchor="start" opacity="1">MOON GLOBE · COLOR (14 MB)</text><text x="1804" y="350" font-family="DejaVu Sans Mono, Liberation Mono, monospace" font-size="15" font-weight="bold" fill="#7CE0A2" text-anchor="end" opacity="1">GO</text><line x1="1316" y1="362" x2="1804" y2="362" stroke="rgba(191,231,255,0.30)" stroke-width="0.6"/><text x="1316" y="394" font-family="DejaVu Sans Mono, Liberation Mono, monospace" font-size="15" fill="rgba(191,231,255,0.55)" text-anchor="start" opacity="1">MOON GLOBE · TERRAIN (8 MB)</text><text x="1804" y="394" font-family="DejaVu Sans Mono, Liberation Mono, monospace" font-size="15" font-weight="bold" fill="#7CE0A2" text-anchor="end" opacity="1">GO</text><line x1="1316" y1="406" x2="1804" y2="406" stroke="rgba(191,231,255,0.30)" stroke-width="0.6"/><text x="1316" y="438" font-family="DejaVu Sans Mono, Liberation Mono, monospace" font-size="15" fill="#BFE7FF" text-anchor="start" opacity="1">SITE PACK · TRANQUILITY (11 MB)</text><text x="1804" y="438" font-family="DejaVu Sans Mono, Liberation Mono, monospace" font-size="15" font-weight="bold" fill="#FFB75C" text-anchor="end" opacity="1">64%</text><line x1="1316" y1="450" x2="1804" y2="450" stroke="rgba(191,231,255,0.30)" stroke-width="0.6"/><text x="1316" y="482" font-family="DejaVu Sans Mono, Liberation Mono, monospace" font-size="15" fill="#BFE7FF" text-anchor="start" opacity="1">GUIDANCE + THERMAL MODEL</text><text x="1804" y="482" font-family="DejaVu Sans Mono, Liberation Mono, monospace" font-size="15" font-weight="bold" fill="#FFB75C" text-anchor="end" opacity="1">HOLD</text><line x1="1316" y1="494" x2="1804" y2="494" stroke="rgba(191,231,255,0.30)" stroke-width="0.6"/><rect x="1316" y="556" width="488" height="8" fill="none" stroke="rgba(191,231,255,0.55)" stroke-width="1"/><rect x="1316" y="556" width="409.9" height="8" fill="#BFE7FF" opacity="0.8"/><text x="1316" y="588" font-family="DejaVu Sans Mono, Liberation Mono, monospace" font-size="13" fill="rgba(191,231,255,0.30)" text-anchor="start" opacity="1">FIRST ENTRY ONLY — CACHED AFTER · 42 MB TOTAL</text><rect x="1316" y="640" width="488" height="74" fill="rgba(191,231,255,0.07)" stroke="#BFE7FF" stroke-width="1.5"/><text x="1560" y="678" font-family="DejaVu Sans Mono, Liberation Mono, monospace" font-size="26" font-weight="bold" fill="#BFE7FF" text-anchor="middle" opacity="1" filter="url(#glow)" letter-spacing="6">BEGIN DESCENT</text><text x="1560" y="702" font-family="DejaVu Sans Mono, Liberation Mono, monospace" font-size="13" fill="#FFB75C" text-anchor="middle" opacity="1">READY IN 0:07</text><text x="960" y="830" font-family="DejaVu Sans Mono, Liberation Mono, monospace" font-size="13" fill="rgba(191,231,255,0.30)" text-anchor="middle" opacity="1">REALISM NOTES: REAL SCALE · REAL EPHEMERIS · REAL TERRAIN DATA · DESCENT SHORTENED BY A SPORTY 3.0 KM/S BUDGET</text><rect x="0" y="1054" width="1920" height="26" fill="rgba(0,0,0,0.55)"/><text x="12" y="1072" font-family="DejaVu Sans Mono, Liberation Mono, monospace" font-size="13" fill="rgba(160,180,200,0.65)" text-anchor="start" opacity="1">MOCKUP 00 · PRE-FLIGHT BOARD = LOADING SCREEN · assets stream while you choose (DESIGN §1.1)</text></svg>