<svg xmlns="http://www.w3.org/2000/svg" width="1920" height="1080" viewBox="0 0 1920 1080">
<defs>
  <filter id="b2"><feGaussianBlur stdDeviation="2"/></filter>
  <filter id="b4"><feGaussianBlur stdDeviation="4"/></filter>
  <filter id="b9"><feGaussianBlur stdDeviation="9"/></filter>
  <filter id="b18"><feGaussianBlur stdDeviation="18"/></filter>
  <filter id="b40" x="-60%" y="-60%" width="220%" height="220%"><feGaussianBlur stdDeviation="40"/></filter>
  <filter id="glow" x="-40%" y="-40%" width="180%" height="180%">
    <feGaussianBlur stdDeviation="1.4" result="g"/>
    <feMerge><feMergeNode in="g"/><feMergeNode in="SourceGraphic"/></feMerge>
  </filter>
  <filter id="regolith" x="0" y="0" width="100%" height="100%">
    <feTurbulence type="fractalNoise" baseFrequency="0.011" numOctaves="5" seed="11" result="n"/>
    <feColorMatrix in="n" type="matrix" values="0 0 0 0 0.62  0 0 0 0 0.61  0 0 0 0 0.60  0 0 0 0.9 0"/>
  </filter>
  <filter id="regolithFine" x="0" y="0" width="100%" height="100%">
    <feTurbulence type="fractalNoise" baseFrequency="0.05" numOctaves="4" seed="29" result="n"/>
    <feColorMatrix in="n" type="matrix" values="0 0 0 0 0.62  0 0 0 0 0.61  0 0 0 0 0.60  0 0 0 0.9 0"/>
  </filter>
  
</defs>
<rect width="1920" height="1080" fill="#000204"/><image x="0" y="0" width="1920" height="1080" href="plate-02.png"/><radialGradient id="sglleft" cx="0.5" cy="0.5" r="0.5"><stop offset="0" stop-color="#FFF6E8" stop-opacity="0.9"/><stop offset="0.25" stop-color="#FFE9C4" stop-opacity="0.35"/><stop offset="1" stop-color="#FFE9C4" stop-opacity="0"/></radialGradient><circle cx="-40" cy="276" r="250" fill="url(#sglleft)"/><rect x="-40" y="274" width="600" height="4" fill="#FFF2DC" opacity="0.25" filter="url(#b4)"/><g opacity="0.9"><line x1="540" y1="64" x2="1380" y2="64" stroke="rgba(191,231,255,0.55)" stroke-width="1.5"/><line x1="540.0" y1="64" x2="540.0" y2="54" stroke="rgba(191,231,255,0.55)" stroke-width="1"/><line x1="610.0" y1="64" x2="610.0" y2="59" stroke="rgba(191,231,255,0.55)" stroke-width="1"/><line x1="680.0" y1="64" x2="680.0" y2="59" stroke="rgba(191,231,255,0.55)" stroke-width="1"/><line x1="750.0" y1="64" x2="750.0" y2="54" stroke="rgba(191,231,255,0.55)" stroke-width="1"/><line x1="820.0" y1="64" x2="820.0" y2="59" stroke="rgba(191,231,255,0.55)" stroke-width="1"/><line x1="890.0" y1="64" x2="890.0" y2="59" stroke="rgba(191,231,255,0.55)" stroke-width="1"/><line x1="960.0" y1="64" x2="960.0" y2="54" stroke="rgba(191,231,255,0.55)" stroke-width="1"/><line x1="1030.0" y1="64" x2="1030.0" y2="59" stroke="rgba(191,231,255,0.55)" stroke-width="1"/><line x1="1100.0" y1="64" x2="1100.0" y2="59" stroke="rgba(191,231,255,0.55)" stroke-width="1"/><line x1="1170.0" y1="64" x2="1170.0" y2="54" stroke="rgba(191,231,255,0.55)" stroke-width="1"/><line x1="1240.0" y1="64" x2="1240.0" y2="59" stroke="rgba(191,231,255,0.55)" stroke-width="1"/><line x1="1310.0" y1="64" x2="1310.0" y2="59" stroke="rgba(191,231,255,0.55)" stroke-width="1"/><line x1="1380.0" y1="64" x2="1380.0" y2="54" stroke="rgba(191,231,255,0.55)" stroke-width="1"/><text x="540" y="48" font-family="DejaVu Sans Mono, Liberation Mono, monospace" font-size="14" fill="rgba(191,231,255,0.30)" text-anchor="middle" opacity="1">E</text><text x="750" y="48" font-family="DejaVu Sans Mono, Liberation Mono, monospace" font-size="14" fill="rgba(191,231,255,0.30)" text-anchor="middle" opacity="1">SE</text><text x="960" y="48" font-family="DejaVu Sans Mono, Liberation Mono, monospace" font-size="14" fill="rgba(191,231,255,0.30)" text-anchor="middle" opacity="1">S</text><text x="1170" y="48" font-family="DejaVu Sans Mono, Liberation Mono, monospace" font-size="14" fill="rgba(191,231,255,0.30)" text-anchor="middle" opacity="1">SW</text><text x="1380" y="48" font-family="DejaVu Sans Mono, Liberation Mono, monospace" font-size="14" fill="rgba(191,231,255,0.30)" text-anchor="middle" opacity="1">W</text><path d="M 960 68 l -7 12 h 14 Z" fill="#BFE7FF"/><circle cx="573.6" cy="82" r="8" fill="none" stroke="#FFB75C" stroke-width="1.5"/><circle cx="573.6" cy="82" r="2.4" fill="#FFB75C"/><text x="573.6" y="110" font-family="DejaVu Sans Mono, Liberation Mono, monospace" font-size="12" fill="rgba(191,231,255,0.30)" text-anchor="middle" opacity="1">SUN 19°</text><path d="M 952.0 75 h 16 l -8 14 Z" fill="none" stroke="#7CE0A2" stroke-width="1.5"/><text x="960" y="110" font-family="DejaVu Sans Mono, Liberation Mono, monospace" font-size="12" fill="rgba(191,231,255,0.30)" text-anchor="middle" opacity="1">SITE</text><circle cx="1329.6" cy="82" r="8" fill="none" stroke="#BFE7FF" stroke-width="1.5"/><path d="M 1321.6 82 h 16 M 1329.6 74 v 16" stroke="#BFE7FF" stroke-width="1.2"/><text x="1329.6" y="110" font-family="DejaVu Sans Mono, Liberation Mono, monospace" font-size="12" fill="rgba(191,231,255,0.30)" text-anchor="middle" opacity="1">EARTH 79° UP</text></g><text x="1838" y="88" font-family="DejaVu Sans Mono, Liberation Mono, monospace" font-size="26" font-weight="bold" fill="#BFE7FF" text-anchor="end" opacity="1" filter="url(#glow)">T+07:21</text><text x="1838" y="116" font-family="DejaVu Sans Mono, Liberation Mono, monospace" font-size="16" fill="rgba(191,231,255,0.55)" text-anchor="end" opacity="1">THE LONG FALL · ENGINE OFF</text><text x="1838" y="142" font-family="DejaVu Sans Mono, Liberation Mono, monospace" font-size="16" font-weight="bold" fill="#FFB75C" text-anchor="end" opacity="1">THE WALL 1:14</text><g opacity="0.95"><text x="96" y="196" font-family="DejaVu Sans Mono, Liberation Mono, monospace" font-size="14" fill="rgba(191,231,255,0.30)" text-anchor="start" opacity="1">ALTITUDE · ORBITAL</text><line x1="96" y1="220" x2="96" y2="880" stroke="rgba(191,231,255,0.55)" stroke-width="1.5"/><line x1="96" y1="259.6" x2="108" y2="259.6" stroke="rgba(191,231,255,0.55)" stroke-width="1.5"/><text x="114" y="264.6" font-family="DejaVu Sans Mono, Liberation Mono, monospace" font-size="13" fill="rgba(191,231,255,0.30)" text-anchor="start" opacity="1">400</text><line x1="96" y1="365.2" x2="108" y2="365.2" stroke="rgba(191,231,255,0.55)" stroke-width="1.5"/><text x="114" y="370.2" font-family="DejaVu Sans Mono, Liberation Mono, monospace" font-size="13" fill="rgba(191,231,255,0.30)" text-anchor="start" opacity="1">200</text><line x1="96" y1="484.0" x2="108" y2="484.0" stroke="rgba(191,231,255,0.55)" stroke-width="1.5"/><text x="114" y="489" font-family="DejaVu Sans Mono, Liberation Mono, monospace" font-size="13" fill="rgba(191,231,255,0.30)" text-anchor="start" opacity="1">60</text><line x1="96" y1="602.8" x2="108" y2="602.8" stroke="rgba(191,231,255,0.55)" stroke-width="1.5"/><text x="114" y="607.8" font-family="DejaVu Sans Mono, Liberation Mono, monospace" font-size="13" fill="rgba(191,231,255,0.30)" text-anchor="start" opacity="1">10</text><line x1="96" y1="734.8" x2="108" y2="734.8" stroke="rgba(191,231,255,0.55)" stroke-width="1.5"/><text x="114" y="739.8000000000001" font-family="DejaVu Sans Mono, Liberation Mono, monospace" font-size="13" fill="rgba(191,231,255,0.30)" text-anchor="start" opacity="1">1</text><line x1="96" y1="847.0" x2="108" y2="847.0" stroke="rgba(191,231,255,0.55)" stroke-width="1.5"/><text x="114" y="852" font-family="DejaVu Sans Mono, Liberation Mono, monospace" font-size="13" fill="rgba(191,231,255,0.30)" text-anchor="start" opacity="1">0</text><line x1="80" y1="226.0" x2="90" y2="226.0" stroke="rgba(191,231,255,0.55)" stroke-width="1.5"/><text x="74" y="230" font-family="DejaVu Sans Mono, Liberation Mono, monospace" font-size="12" fill="rgba(191,231,255,0.30)" text-anchor="end" opacity="1">ORBIT</text><line x1="80" y1="388.0" x2="90" y2="388.0" stroke="rgba(191,231,255,0.55)" stroke-width="1.5"/><text x="74" y="392" font-family="DejaVu Sans Mono, Liberation Mono, monospace" font-size="12" fill="rgba(191,231,255,0.30)" text-anchor="end" opacity="1">BURN</text><line x1="80" y1="550.0" x2="90" y2="550.0" stroke="#BFE7FF" stroke-width="1.5"/><text x="74" y="554" font-family="DejaVu Sans Mono, Liberation Mono, monospace" font-size="12" font-weight="bold" fill="#BFE7FF" text-anchor="end" opacity="1">FALL</text><line x1="80" y1="712.0" x2="90" y2="712.0" stroke="rgba(191,231,255,0.55)" stroke-width="1.5"/><text x="74" y="716" font-family="DejaVu Sans Mono, Liberation Mono, monospace" font-size="12" fill="rgba(191,231,255,0.30)" text-anchor="end" opacity="1">APPROACH</text><line x1="80" y1="874.0" x2="90" y2="874.0" stroke="rgba(191,231,255,0.55)" stroke-width="1.5"/><text x="74" y="878" font-family="DejaVu Sans Mono, Liberation Mono, monospace" font-size="12" fill="rgba(191,231,255,0.30)" text-anchor="end" opacity="1">FINAL</text><circle cx="96" cy="444.4" r="6.5" fill="#BFE7FF" filter="url(#glow)"/><rect x="152" y="418.4" width="168" height="52" fill="rgba(8,14,22,0.50)" rx="3"/><path d="M 152 432.4 V 418.4 H 166" stroke="#BFE7FF" stroke-width="1.5" fill="none" opacity="0.7"/><path d="M 306 418.4 H 320 V 432.4" stroke="#BFE7FF" stroke-width="1.5" fill="none" opacity="0.7"/><path d="M 320 456.4 V 470.4 H 306" stroke="#BFE7FF" stroke-width="1.5" fill="none" opacity="0.7"/><path d="M 166 470.4 H 152 V 456.4" stroke="#BFE7FF" stroke-width="1.5" fill="none" opacity="0.7"/><text x="292" y="453.4" font-family="DejaVu Sans Mono, Liberation Mono, monospace" font-size="30" font-weight="bold" fill="#BFE7FF" text-anchor="end" opacity="1" filter="url(#glow)">180.4</text><text x="296" y="451.4" font-family="DejaVu Sans Mono, Liberation Mono, monospace" font-size="14" fill="rgba(191,231,255,0.55)" text-anchor="start" opacity="1">KM</text></g><rect x="1588" y="282" width="268" height="168" fill="rgba(8,14,22,0.50)" rx="3"/><path d="M 1588 296 V 282 H 1602" stroke="#BFE7FF" stroke-width="1.5" fill="none" opacity="0.7"/><path d="M 1842 282 H 1856 V 296" stroke="#BFE7FF" stroke-width="1.5" fill="none" opacity="0.7"/><path d="M 1856 436 V 450 H 1842" stroke="#BFE7FF" stroke-width="1.5" fill="none" opacity="0.7"/><path d="M 1602 450 H 1588 V 436" stroke="#BFE7FF" stroke-width="1.5" fill="none" opacity="0.7"/><text x="1604" y="312" font-family="DejaVu Sans Mono, Liberation Mono, monospace" font-size="14" fill="rgba(191,231,255,0.30)" text-anchor="start" opacity="1">VELOCITY</text><text x="1838" y="348" font-family="DejaVu Sans Mono, Liberation Mono, monospace" font-size="38" font-weight="bold" fill="#BFE7FF" text-anchor="end" opacity="1" filter="url(#glow)">1614</text><text x="1838" y="372" font-family="DejaVu Sans Mono, Liberation Mono, monospace" font-size="14" fill="rgba(191,231,255,0.55)" text-anchor="end" opacity="1">M/S · 5,810 KM/H</text><text x="1604" y="407" font-family="DejaVu Sans Mono, Liberation Mono, monospace" font-size="14" fill="rgba(191,231,255,0.30)" text-anchor="start" opacity="1">V-SPD</text><rect x="1666" y="395" width="120" height="13" fill="none" stroke="rgba(191,231,255,0.55)" stroke-width="1"/><rect x="1666" y="395" width="120.0" height="13" fill="#BFE7FF" opacity="0.85"/><text x="1838" y="407" font-family="DejaVu Sans Mono, Liberation Mono, monospace" font-size="16" font-weight="bold" fill="#BFE7FF" text-anchor="end" opacity="1">-1612</text><text x="1604" y="435" font-family="DejaVu Sans Mono, Liberation Mono, monospace" font-size="14" fill="rgba(191,231,255,0.30)" text-anchor="start" opacity="1">H-SPD</text><rect x="1666" y="423" width="120" height="13" fill="none" stroke="rgba(191,231,255,0.55)" stroke-width="1"/><rect x="1666" y="423" width="18.0" height="13" fill="#BFE7FF" opacity="0.85"/><text x="1838" y="435" font-family="DejaVu Sans Mono, Liberation Mono, monospace" font-size="16" font-weight="bold" fill="#BFE7FF" text-anchor="end" opacity="1">60</text><rect x="1588" y="470" width="268" height="150" fill="rgba(8,14,22,0.50)" rx="3"/><path d="M 1588 484 V 470 H 1602" stroke="#BFE7FF" stroke-width="1.5" fill="none" opacity="0.7"/><path d="M 1842 470 H 1856 V 484" stroke="#BFE7FF" stroke-width="1.5" fill="none" opacity="0.7"/><path d="M 1856 606 V 620 H 1842" stroke="#BFE7FF" stroke-width="1.5" fill="none" opacity="0.7"/><path d="M 1602 620 H 1588 V 606" stroke="#BFE7FF" stroke-width="1.5" fill="none" opacity="0.7"/><text x="1604" y="500" font-family="DejaVu Sans Mono, Liberation Mono, monospace" font-size="14" fill="rgba(191,231,255,0.30)" text-anchor="start" opacity="1">SURFACE TEMP · NADIR</text><text x="1776" y="544" font-family="DejaVu Sans Mono, Liberation Mono, monospace" font-size="38" font-weight="bold" fill="#BFE7FF" text-anchor="end" opacity="1" filter="url(#glow)">+21°C</text><path d="M 1806 541 l -9 -14 h 18 Z" fill="#9FC4FF"/><path d="M1604.0 564.4 L1625.5 565.0 L1646.9 565.6 L1668.4 566.8 L1689.8 568.0 L1711.3 569.8 L1732.7 571.0 L1754.2 573.4 L1775.6 575.5 L1797.1 577.0 L1818.5 578.8 L1840.0 580.0 " stroke="#BFE7FF" stroke-width="1.5" fill="none" opacity="0.8"/><line x1="1604" y1="592" x2="1840" y2="592" stroke="rgba(191,231,255,0.55)" stroke-width="0.7" opacity="0.5"/><text x="1604" y="612" font-family="DejaVu Sans Mono, Liberation Mono, monospace" font-size="12" fill="rgba(191,231,255,0.30)" text-anchor="start" opacity="1">SUN 19° UNDER TRACK — LOWER TOWARD SITE</text><g opacity="0.9"><circle cx="285" cy="905" r="64" fill="rgba(8,14,22,0.50)" stroke="rgba(191,231,255,0.55)" stroke-width="1.5"/><line x1="230.6" y1="953.8" x2="339.4" y2="953.8" stroke="#BFE7FF" stroke-width="1.5"/><line x1="262.6" y1="967.8" x2="307.4" y2="967.8" stroke="rgba(191,231,255,0.55)" stroke-width="1" stroke-dasharray="4 4"/><circle cx="307" cy="887" r="9" fill="none" stroke="#FFB75C" stroke-width="1.5"/><path d="M 301 881 l 12 12 M 313 881 l -12 12" stroke="#FFB75C" stroke-width="1.2"/><path d="M 285 905 l 0 39.68 M 285 944.68 l -6 -10 M 285 944.68 l 6 -10" stroke="#7CE0A2" stroke-width="2"/><text x="285" y="993" font-family="DejaVu Sans Mono, Liberation Mono, monospace" font-size="13" fill="rgba(191,231,255,0.30)" text-anchor="middle" opacity="1">PITCH -58°</text></g><path d="M 760 980 Q 830 800 905 640 Q 945 520 962 430" stroke="#BFE7FF" stroke-width="2" stroke-dasharray="10 8" fill="none" opacity="0.65" filter="url(#glow)"/><path d="M 950 426 l 12 10 l 12 -10" stroke="#7CE0A2" stroke-width="2.5" fill="none" filter="url(#glow)"/><text x="962" y="458" font-family="DejaVu Sans Mono, Liberation Mono, monospace" font-size="14" fill="#7CE0A2" text-anchor="middle" opacity="1">SITE · 12 KM DOWNRANGE</text><rect x="560" y="933" width="800" height="28" fill="rgba(0,0,0,0.35)" rx="3"/><text x="960" y="952" font-family="DejaVu Sans Mono, Liberation Mono, monospace" font-size="17" fill="rgba(191,231,255,0.55)" text-anchor="middle" opacity="1" letter-spacing="6">MARE TRANQUILLITATIS</text><path d="M 630 999 h 10 l 5 7 l -5 7 h -10 Z" fill="#FFB75C" opacity="0.9"/><text x="654" y="1012" font-family="DejaVu Sans Mono, Liberation Mono, monospace" font-size="19" fill="#FFB75C" text-anchor="start" opacity="1" filter="url(#glow)">RADIO: "COMING UP ON THE WALL. BRACE FOR BRAKING."</text><rect x="0" y="1054" width="1920" height="26" fill="rgba(0,0,0,0.55)"/><text x="12" y="1072" font-family="DejaVu Sans Mono, Liberation Mono, monospace" font-size="13" fill="rgba(160,180,200,0.65)" text-anchor="start" opacity="1">MOCKUP 02 · THE LONG FALL · GLASS HUD (A) · ballistic coast 180.4 km, V-SPD −1,612 m/s ⇒ braking burn (60 km) in 74 s — numbers cross-check · cross-lit, 60° hFOV · no stars over sunlit ground</text></svg>