<svg xmlns="http://www.w3.org/2000/svg" width="1920" height="1080" viewBox="0 0 1920 1080">
<defs>
  <filter id="b2"><feGaussianBlur stdDeviation="2"/></filter>
  <filter id="b4"><feGaussianBlur stdDeviation="4"/></filter>
  <filter id="b9"><feGaussianBlur stdDeviation="9"/></filter>
  <filter id="b18"><feGaussianBlur stdDeviation="18"/></filter>
  <filter id="b40" x="-60%" y="-60%" width="220%" height="220%"><feGaussianBlur stdDeviation="40"/></filter>
  <filter id="glow" x="-40%" y="-40%" width="180%" height="180%">
    <feGaussianBlur stdDeviation="1.4" result="g"/>
    <feMerge><feMergeNode in="g"/><feMergeNode in="SourceGraphic"/></feMerge>
  </filter>
  <filter id="regolith" x="0" y="0" width="100%" height="100%">
    <feTurbulence type="fractalNoise" baseFrequency="0.011" numOctaves="5" seed="11" result="n"/>
    <feColorMatrix in="n" type="matrix" values="0 0 0 0 0.62  0 0 0 0 0.61  0 0 0 0 0.60  0 0 0 0.9 0"/>
  </filter>
  <filter id="regolithFine" x="0" y="0" width="100%" height="100%">
    <feTurbulence type="fractalNoise" baseFrequency="0.05" numOctaves="4" seed="29" result="n"/>
    <feColorMatrix in="n" type="matrix" values="0 0 0 0 0.62  0 0 0 0 0.61  0 0 0 0 0.60  0 0 0 0.9 0"/>
  </filter>
  
</defs>
<rect width="1920" height="1080" fill="#000204"/><image x="0" y="0" width="1920" height="1080" href="plate-03.png"/><radialGradient id="sglleft" cx="0.5" cy="0.5" r="0.5"><stop offset="0" stop-color="#FFF6E8" stop-opacity="0.9"/><stop offset="0.25" stop-color="#FFE9C4" stop-opacity="0.35"/><stop offset="1" stop-color="#FFE9C4" stop-opacity="0"/></radialGradient><circle cx="-40" cy="144" r="250" fill="url(#sglleft)"/><rect x="-40" y="142" width="600" height="4" fill="#FFF2DC" opacity="0.25" filter="url(#b4)"/><g filter="url(#glow)"><circle cx="960" cy="640" r="74" fill="none" stroke="#7CE0A2" stroke-width="2"/><circle cx="960" cy="640" r="40.7" fill="none" stroke="#7CE0A2" stroke-width="1.2" opacity="0.8"/><path d="M 860.1 640 H 908.2 M 1011.8 640 H 1059.9 M 960 540.1 V 588.2 M 960 691.8 V 739.9" stroke="#7CE0A2" stroke-width="1.6"/></g><text x="1071" y="632" font-family="DejaVu Sans Mono, Liberation Mono, monospace" font-size="16" font-weight="bold" fill="#7CE0A2" text-anchor="start" opacity="1">SLOPE 1.8°</text><text x="1071" y="654" font-family="DejaVu Sans Mono, Liberation Mono, monospace" font-size="14" fill="#7CE0A2" text-anchor="start" opacity="1">GO</text><rect x="840" y="750" width="240" height="96" fill="rgba(8,14,22,0.50)" rx="3"/><path d="M 840 764 V 750 H 854" stroke="#BFE7FF" stroke-width="1.5" fill="none" opacity="0.7"/><path d="M 1066 750 H 1080 V 764" stroke="#BFE7FF" stroke-width="1.5" fill="none" opacity="0.7"/><path d="M 1080 832 V 846 H 1066" stroke="#BFE7FF" stroke-width="1.5" fill="none" opacity="0.7"/><path d="M 854 846 H 840 V 832" stroke="#BFE7FF" stroke-width="1.5" fill="none" opacity="0.7"/><text x="1056" y="794" font-family="DejaVu Sans Mono, Liberation Mono, monospace" font-size="44" font-weight="bold" fill="#BFE7FF" text-anchor="end" opacity="1" filter="url(#glow)">31 M</text><text x="1056" y="830" font-family="DejaVu Sans Mono, Liberation Mono, monospace" font-size="26" font-weight="bold" fill="#7CE0A2" text-anchor="end" opacity="1" filter="url(#glow)">-2.4 M/S</text><text x="864" y="794" font-family="DejaVu Sans Mono, Liberation Mono, monospace" font-size="14" fill="rgba(191,231,255,0.30)" text-anchor="start" opacity="1">AGL</text><text x="864" y="830" font-family="DejaVu Sans Mono, Liberation Mono, monospace" font-size="14" fill="rgba(191,231,255,0.30)" text-anchor="start" opacity="1">V-SPD</text><g><line x1="1100.8" y1="1063.5" x2="1416.1" y2="668.2" stroke="#F2ECE2" stroke-width="1.1" opacity="0.18"/><line x1="646.8" y1="1134.1" x2="-59.1" y2="895.3" stroke="#F2ECE2" stroke-width="2.5" opacity="0.16" filter="url(#b2)"/><line x1="1007.9" y1="1090.5" x2="1140.4" y2="677.0" stroke="#F2ECE2" stroke-width="1.1" opacity="0.25" filter="url(#b2)"/><line x1="1144.7" y1="1146.5" x2="1789.3" y2="820.4" stroke="#F2ECE2" stroke-width="2.8" opacity="0.26" filter="url(#b2)"/><line x1="1242.8" y1="1160.2" x2="1869.5" y2="983.4" stroke="#F2ECE2" stroke-width="1.1" opacity="0.13"/><line x1="1077.2" y1="1118.4" x2="1290.1" y2="897.7" stroke="#F2ECE2" stroke-width="2.5" opacity="0.23" filter="url(#b2)"/><line x1="1202.3" y1="1101.0" x2="1810.5" y2="752.3" stroke="#F2ECE2" stroke-width="1.7" opacity="0.17"/><line x1="658.5" y1="1141.9" x2="430.0" y2="1067.5" stroke="#F2ECE2" stroke-width="1.9" opacity="0.10"/><line x1="1260.6" y1="1116.4" x2="1836.4" y2="879.7" stroke="#F2ECE2" stroke-width="2.8" opacity="0.21"/><line x1="682.7" y1="1103.4" x2="111.1" y2="821.7" stroke="#F2ECE2" stroke-width="3.1" opacity="0.27"/><line x1="1140.3" y1="1126.9" x2="1713.4" y2="767.4" stroke="#F2ECE2" stroke-width="2.8" opacity="0.29"/><line x1="850.7" y1="1053.8" x2="722.6" y2="835.7" stroke="#F2ECE2" stroke-width="2.7" opacity="0.17" filter="url(#b2)"/><line x1="664.2" y1="1120.7" x2="364.3" y2="999.8" stroke="#F2ECE2" stroke-width="2.8" opacity="0.21" filter="url(#b2)"/><line x1="947.8" y1="1084.1" x2="922.0" y2="756.0" stroke="#F2ECE2" stroke-width="1.7" opacity="0.12" filter="url(#b2)"/><line x1="935.0" y1="1079.5" x2="882.9" y2="744.5" stroke="#F2ECE2" stroke-width="2.2" opacity="0.13"/><line x1="1182.2" y1="1143.0" x2="1634.7" y2="945.6" stroke="#F2ECE2" stroke-width="2.8" opacity="0.22"/><line x1="866.3" y1="1122.9" x2="503.8" y2="670.3" stroke="#F2ECE2" stroke-width="1.8" opacity="0.10"/><line x1="1032.6" y1="1092.4" x2="1174.8" y2="803.3" stroke="#F2ECE2" stroke-width="1.2" opacity="0.11" filter="url(#b2)"/><line x1="952.1" y1="1073.6" x2="937.1" y2="755.3" stroke="#F2ECE2" stroke-width="1.9" opacity="0.30" filter="url(#b2)"/><line x1="941.3" y1="1095.9" x2="876.3" y2="595.2" stroke="#F2ECE2" stroke-width="2.5" opacity="0.09" filter="url(#b2)"/><line x1="732.8" y1="1093.1" x2="340.6" y2="839.5" stroke="#F2ECE2" stroke-width="2.6" opacity="0.18"/><line x1="749.4" y1="1117.9" x2="543.1" y2="998.2" stroke="#F2ECE2" stroke-width="1.0" opacity="0.24" filter="url(#b2)"/><line x1="739.6" y1="1084.4" x2="246.8" y2="736.6" stroke="#F2ECE2" stroke-width="2.0" opacity="0.09"/><line x1="823.0" y1="1127.5" x2="446.6" y2="818.6" stroke="#F2ECE2" stroke-width="1.4" opacity="0.29" filter="url(#b2)"/><line x1="905.5" y1="1099.1" x2="781.0" y2="776.8" stroke="#F2ECE2" stroke-width="3.2" opacity="0.12"/><line x1="875.7" y1="1076.7" x2="664.7" y2="668.3" stroke="#F2ECE2" stroke-width="2.6" opacity="0.16"/><line x1="962.7" y1="1116.4" x2="970.0" y2="786.4" stroke="#F2ECE2" stroke-width="2.8" opacity="0.23" filter="url(#b2)"/><line x1="688.5" y1="1135.0" x2="315.4" y2="990.6" stroke="#F2ECE2" stroke-width="1.2" opacity="0.10"/><line x1="1113.5" y1="1146.1" x2="1584.5" y2="858.1" stroke="#F2ECE2" stroke-width="2.0" opacity="0.27"/><line x1="848.7" y1="1109.5" x2="676.9" y2="908.2" stroke="#F2ECE2" stroke-width="1.7" opacity="0.17"/><line x1="905.7" y1="1125.4" x2="819.4" y2="943.3" stroke="#F2ECE2" stroke-width="2.0" opacity="0.24"/><line x1="987.8" y1="1057.8" x2="1038.0" y2="728.5" stroke="#F2ECE2" stroke-width="1.3" opacity="0.26"/><line x1="1085.5" y1="1125.2" x2="1322.8" y2="908.3" stroke="#F2ECE2" stroke-width="1.6" opacity="0.18" filter="url(#b2)"/><line x1="710.4" y1="1102.5" x2="349.6" y2="903.8" stroke="#F2ECE2" stroke-width="1.0" opacity="0.30"/><line x1="826.3" y1="1123.7" x2="431.1" y2="780.0" stroke="#F2ECE2" stroke-width="2.3" opacity="0.23"/><line x1="1195.6" y1="1134.1" x2="1498.1" y2="998.1" stroke="#F2ECE2" stroke-width="2.0" opacity="0.13"/><line x1="1203.9" y1="1183.1" x2="1530.0" y2="1107.1" stroke="#F2ECE2" stroke-width="1.2" opacity="0.09"/><line x1="991.7" y1="1062.4" x2="1081.7" y2="558.0" stroke="#F2ECE2" stroke-width="3.0" opacity="0.17" filter="url(#b2)"/><line x1="1164.5" y1="1104.3" x2="1668.4" y2="770.1" stroke="#F2ECE2" stroke-width="2.2" opacity="0.10"/><line x1="1106.6" y1="1072.9" x2="1221.1" y2="942.4" stroke="#F2ECE2" stroke-width="1.4" opacity="0.11" filter="url(#b2)"/><line x1="1013.2" y1="1039.8" x2="1143.5" y2="549.5" stroke="#F2ECE2" stroke-width="1.6" opacity="0.10"/><line x1="734.8" y1="1158.5" x2="289.6" y2="997.6" stroke="#F2ECE2" stroke-width="2.4" opacity="0.10"/><line x1="1230.1" y1="1135.5" x2="1547.6" y2="1012.7" stroke="#F2ECE2" stroke-width="1.4" opacity="0.28"/><line x1="1173.3" y1="1179.5" x2="1699.9" y2="1030.2" stroke="#F2ECE2" stroke-width="1.6" opacity="0.16"/><line x1="1079.5" y1="1114.4" x2="1427.6" y2="748.3" stroke="#F2ECE2" stroke-width="3.1" opacity="0.10" filter="url(#b2)"/><line x1="742.8" y1="1178.8" x2="91.5" y2="995.4" stroke="#F2ECE2" stroke-width="1.7" opacity="0.17" filter="url(#b2)"/><line x1="1135.4" y1="1172.3" x2="1858.4" y2="893.5" stroke="#F2ECE2" stroke-width="1.0" opacity="0.24"/><line x1="1094.3" y1="1146.1" x2="1437.8" y2="905.9" stroke="#F2ECE2" stroke-width="2.6" opacity="0.28"/><line x1="901.2" y1="1133.3" x2="788.7" y2="928.7" stroke="#F2ECE2" stroke-width="3.1" opacity="0.18"/><line x1="1099.5" y1="1113.6" x2="1354.9" y2="882.2" stroke="#F2ECE2" stroke-width="1.6" opacity="0.14"/><line x1="680.9" y1="1117.4" x2="388.8" y2="989.1" stroke="#F2ECE2" stroke-width="1.8" opacity="0.20" filter="url(#b2)"/><line x1="862.7" y1="1143.8" x2="658.1" y2="941.4" stroke="#F2ECE2" stroke-width="1.3" opacity="0.27"/><line x1="695.2" y1="1113.7" x2="228.8" y2="891.3" stroke="#F2ECE2" stroke-width="1.8" opacity="0.23" filter="url(#b2)"/><line x1="809.0" y1="1113.9" x2="481.7" y2="840.6" stroke="#F2ECE2" stroke-width="2.7" opacity="0.25"/><line x1="960.8" y1="1050.6" x2="962.3" y2="710.4" stroke="#F2ECE2" stroke-width="1.9" opacity="0.22"/><line x1="678.6" y1="1152.8" x2="295.1" y2="1033.9" stroke="#F2ECE2" stroke-width="1.2" opacity="0.26" filter="url(#b2)"/><line x1="1170.4" y1="1160.6" x2="1458.3" y2="1052.0" stroke="#F2ECE2" stroke-width="1.6" opacity="0.12" filter="url(#b2)"/><line x1="774.1" y1="1151.6" x2="99.3" y2="830.5" stroke="#F2ECE2" stroke-width="2.7" opacity="0.11"/><line x1="1017.0" y1="1086.6" x2="1196.1" y2="604.9" stroke="#F2ECE2" stroke-width="2.7" opacity="0.17" filter="url(#b2)"/><line x1="809.8" y1="1080.0" x2="496.0" y2="745.6" stroke="#F2ECE2" stroke-width="2.7" opacity="0.26"/><line x1="1107.0" y1="1132.2" x2="1472.7" y2="863.9" stroke="#F2ECE2" stroke-width="1.4" opacity="0.24"/><line x1="922.0" y1="1079.5" x2="826.5" y2="675.8" stroke="#F2ECE2" stroke-width="1.6" opacity="0.28"/><line x1="861.8" y1="1070.6" x2="720.3" y2="826.5" stroke="#F2ECE2" stroke-width="1.3" opacity="0.12"/><line x1="1112.2" y1="1150.1" x2="1463.9" y2="942.4" stroke="#F2ECE2" stroke-width="1.0" opacity="0.28"/><line x1="805.7" y1="1073.6" x2="558.1" y2="806.4" stroke="#F2ECE2" stroke-width="1.6" opacity="0.21" filter="url(#b2)"/><line x1="756.1" y1="1196.3" x2="17.5" y2="1037.9" stroke="#F2ECE2" stroke-width="2.5" opacity="0.23"/><line x1="923.2" y1="1051.7" x2="887.5" y2="868.6" stroke="#F2ECE2" stroke-width="2.1" opacity="0.29" filter="url(#b2)"/><line x1="870.6" y1="1127.2" x2="493.1" y2="650.6" stroke="#F2ECE2" stroke-width="2.1" opacity="0.20" filter="url(#b2)"/><line x1="878.3" y1="1076.1" x2="628.6" y2="574.9" stroke="#F2ECE2" stroke-width="1.5" opacity="0.16" filter="url(#b2)"/><line x1="1175.1" y1="1163.9" x2="1457.8" y2="1063.9" stroke="#F2ECE2" stroke-width="2.7" opacity="0.18" filter="url(#b2)"/><line x1="1071.3" y1="1080.4" x2="1269.7" y2="795.9" stroke="#F2ECE2" stroke-width="1.2" opacity="0.12"/><line x1="931.2" y1="1110.8" x2="882.3" y2="892.1" stroke="#F2ECE2" stroke-width="1.6" opacity="0.25"/><line x1="746.4" y1="1176.6" x2="298.3" y2="1043.6" stroke="#F2ECE2" stroke-width="2.9" opacity="0.20"/><line x1="707.3" y1="1161.2" x2="19.2" y2="946.7" stroke="#F2ECE2" stroke-width="2.2" opacity="0.17" filter="url(#b2)"/><line x1="689.0" y1="1180.3" x2="55.4" y2="1040.8" stroke="#F2ECE2" stroke-width="3.0" opacity="0.15"/><line x1="786.5" y1="1101.0" x2="409.4" y2="798.8" stroke="#F2ECE2" stroke-width="1.6" opacity="0.26" filter="url(#b2)"/><line x1="1154.5" y1="1191.0" x2="1931.5" y2="995.5" stroke="#F2ECE2" stroke-width="1.9" opacity="0.28"/><line x1="1104.8" y1="1053.0" x2="1264.3" y2="847.0" stroke="#F2ECE2" stroke-width="1.2" opacity="0.14" filter="url(#b2)"/><line x1="929.4" y1="1079.0" x2="869.7" y2="764.6" stroke="#F2ECE2" stroke-width="2.9" opacity="0.13" filter="url(#b2)"/><line x1="893.8" y1="1092.5" x2="675.4" y2="606.0" stroke="#F2ECE2" stroke-width="1.7" opacity="0.11"/><linearGradient id="dustveil" x1="0" y1="1" x2="0" y2="0"><stop offset="0" stop-color="#E4DED4" stop-opacity="0.40"/><stop offset="1" stop-color="#E4DED4" stop-opacity="0"/></linearGradient><rect x="0" y="669.6" width="1920" height="410.4" fill="url(#dustveil)"/></g><g fill="#05060a" transform="translate(0 0) scale(-1 1)">
    <path d="M -10 1062 L 132 992 L 148 1016 L 18 1080 L -10 1080 Z"/>
    <path d="M 60 1080 L 128 1002 L 142 1010 L 92 1080 Z"/>
    <ellipse cx="150" cy="1010" rx="26" ry="10"/>
  </g><g fill="#05060a" transform="translate(1920 0) scale(1 1)">
    <path d="M -10 1062 L 132 992 L 148 1016 L 18 1080 L -10 1080 Z"/>
    <path d="M 60 1080 L 128 1002 L 142 1010 L 92 1080 Z"/>
    <ellipse cx="150" cy="1010" rx="26" ry="10"/>
  </g><g opacity="0.9"><line x1="540" y1="64" x2="1380" y2="64" stroke="rgba(191,231,255,0.55)" stroke-width="1.5"/><line x1="540.0" y1="64" x2="540.0" y2="54" stroke="rgba(191,231,255,0.55)" stroke-width="1"/><line x1="610.0" y1="64" x2="610.0" y2="59" stroke="rgba(191,231,255,0.55)" stroke-width="1"/><line x1="680.0" y1="64" x2="680.0" y2="59" stroke="rgba(191,231,255,0.55)" stroke-width="1"/><line x1="750.0" y1="64" x2="750.0" y2="54" stroke="rgba(191,231,255,0.55)" stroke-width="1"/><line x1="820.0" y1="64" x2="820.0" y2="59" stroke="rgba(191,231,255,0.55)" stroke-width="1"/><line x1="890.0" y1="64" x2="890.0" y2="59" stroke="rgba(191,231,255,0.55)" stroke-width="1"/><line x1="960.0" y1="64" x2="960.0" y2="54" stroke="rgba(191,231,255,0.55)" stroke-width="1"/><line x1="1030.0" y1="64" x2="1030.0" y2="59" stroke="rgba(191,231,255,0.55)" stroke-width="1"/><line x1="1100.0" y1="64" x2="1100.0" y2="59" stroke="rgba(191,231,255,0.55)" stroke-width="1"/><line x1="1170.0" y1="64" x2="1170.0" y2="54" stroke="rgba(191,231,255,0.55)" stroke-width="1"/><line x1="1240.0" y1="64" x2="1240.0" y2="59" stroke="rgba(191,231,255,0.55)" stroke-width="1"/><line x1="1310.0" y1="64" x2="1310.0" y2="59" stroke="rgba(191,231,255,0.55)" stroke-width="1"/><line x1="1380.0" y1="64" x2="1380.0" y2="54" stroke="rgba(191,231,255,0.55)" stroke-width="1"/><text x="540" y="48" font-family="DejaVu Sans Mono, Liberation Mono, monospace" font-size="14" fill="rgba(191,231,255,0.30)" text-anchor="middle" opacity="1">E</text><text x="750" y="48" font-family="DejaVu Sans Mono, Liberation Mono, monospace" font-size="14" fill="rgba(191,231,255,0.30)" text-anchor="middle" opacity="1">SE</text><text x="960" y="48" font-family="DejaVu Sans Mono, Liberation Mono, monospace" font-size="14" fill="rgba(191,231,255,0.30)" text-anchor="middle" opacity="1">S</text><text x="1170" y="48" font-family="DejaVu Sans Mono, Liberation Mono, monospace" font-size="14" fill="rgba(191,231,255,0.30)" text-anchor="middle" opacity="1">SW</text><text x="1380" y="48" font-family="DejaVu Sans Mono, Liberation Mono, monospace" font-size="14" fill="rgba(191,231,255,0.30)" text-anchor="middle" opacity="1">W</text><path d="M 960 68 l -7 12 h 14 Z" fill="#BFE7FF"/><circle cx="573.6" cy="82" r="8" fill="none" stroke="#FFB75C" stroke-width="1.5"/><circle cx="573.6" cy="82" r="2.4" fill="#FFB75C"/><text x="573.6" y="110" font-family="DejaVu Sans Mono, Liberation Mono, monospace" font-size="12" fill="rgba(191,231,255,0.30)" text-anchor="middle" opacity="1">SUN</text><path d="M 952.0 75 h 16 l -8 14 Z" fill="none" stroke="#7CE0A2" stroke-width="1.5"/><text x="960" y="110" font-family="DejaVu Sans Mono, Liberation Mono, monospace" font-size="12" fill="rgba(191,231,255,0.30)" text-anchor="middle" opacity="1">PAD</text><circle cx="1329.6" cy="82" r="8" fill="none" stroke="#BFE7FF" stroke-width="1.5"/><path d="M 1321.6 82 h 16 M 1329.6 74 v 16" stroke="#BFE7FF" stroke-width="1.2"/><text x="1329.6" y="110" font-family="DejaVu Sans Mono, Liberation Mono, monospace" font-size="12" fill="rgba(191,231,255,0.30)" text-anchor="middle" opacity="1">EARTH 79° UP</text></g><text x="1838" y="88" font-family="DejaVu Sans Mono, Liberation Mono, monospace" font-size="26" font-weight="bold" fill="#BFE7FF" text-anchor="end" opacity="1" filter="url(#glow)">T+11:36</text><text x="1838" y="116" font-family="DejaVu Sans Mono, Liberation Mono, monospace" font-size="16" fill="rgba(191,231,255,0.55)" text-anchor="end" opacity="1">FINAL · RADAR</text><text x="1838" y="142" font-family="DejaVu Sans Mono, Liberation Mono, monospace" font-size="16" font-weight="bold" fill="#FFB75C" text-anchor="end" opacity="1">CONTACT ~0:14</text><g opacity="0.95"><text x="96" y="196" font-family="DejaVu Sans Mono, Liberation Mono, monospace" font-size="14" fill="rgba(191,231,255,0.30)" text-anchor="start" opacity="1">ALTITUDE · RADAR AGL</text><line x1="96" y1="220" x2="96" y2="880" stroke="rgba(191,231,255,0.55)" stroke-width="1.5"/><line x1="96" y1="259.6" x2="108" y2="259.6" stroke="rgba(191,231,255,0.55)" stroke-width="1.5"/><text x="114" y="264.6" font-family="DejaVu Sans Mono, Liberation Mono, monospace" font-size="13" fill="rgba(191,231,255,0.30)" text-anchor="start" opacity="1">400 KM</text><line x1="96" y1="418.0" x2="108" y2="418.0" stroke="rgba(191,231,255,0.55)" stroke-width="1.5"/><text x="114" y="423" font-family="DejaVu Sans Mono, Liberation Mono, monospace" font-size="13" fill="rgba(191,231,255,0.30)" text-anchor="start" opacity="1">60 KM</text><line x1="96" y1="583.0" x2="108" y2="583.0" stroke="rgba(191,231,255,0.55)" stroke-width="1.5"/><text x="114" y="588" font-family="DejaVu Sans Mono, Liberation Mono, monospace" font-size="13" fill="rgba(191,231,255,0.30)" text-anchor="start" opacity="1">2 KM</text><line x1="96" y1="734.8" x2="108" y2="734.8" stroke="rgba(191,231,255,0.55)" stroke-width="1.5"/><text x="114" y="739.8000000000001" font-family="DejaVu Sans Mono, Liberation Mono, monospace" font-size="13" fill="rgba(191,231,255,0.30)" text-anchor="start" opacity="1">100</text><line x1="96" y1="833.8" x2="108" y2="833.8" stroke="rgba(191,231,255,0.55)" stroke-width="1.5"/><text x="114" y="838.8000000000001" font-family="DejaVu Sans Mono, Liberation Mono, monospace" font-size="13" fill="rgba(191,231,255,0.30)" text-anchor="start" opacity="1">30</text><line x1="96" y1="873.4" x2="108" y2="873.4" stroke="rgba(191,231,255,0.55)" stroke-width="1.5"/><text x="114" y="878.4" font-family="DejaVu Sans Mono, Liberation Mono, monospace" font-size="13" fill="rgba(191,231,255,0.30)" text-anchor="start" opacity="1">0</text><line x1="80" y1="226.0" x2="90" y2="226.0" stroke="rgba(191,231,255,0.55)" stroke-width="1.5"/><text x="74" y="230" font-family="DejaVu Sans Mono, Liberation Mono, monospace" font-size="12" fill="rgba(191,231,255,0.30)" text-anchor="end" opacity="1">ORBIT</text><line x1="80" y1="388.0" x2="90" y2="388.0" stroke="rgba(191,231,255,0.55)" stroke-width="1.5"/><text x="74" y="392" font-family="DejaVu Sans Mono, Liberation Mono, monospace" font-size="12" fill="rgba(191,231,255,0.30)" text-anchor="end" opacity="1">BURN</text><line x1="80" y1="550.0" x2="90" y2="550.0" stroke="rgba(191,231,255,0.55)" stroke-width="1.5"/><text x="74" y="554" font-family="DejaVu Sans Mono, Liberation Mono, monospace" font-size="12" fill="rgba(191,231,255,0.30)" text-anchor="end" opacity="1">FALL</text><line x1="80" y1="712.0" x2="90" y2="712.0" stroke="rgba(191,231,255,0.55)" stroke-width="1.5"/><text x="74" y="716" font-family="DejaVu Sans Mono, Liberation Mono, monospace" font-size="12" fill="rgba(191,231,255,0.30)" text-anchor="end" opacity="1">APPROACH</text><line x1="80" y1="874.0" x2="90" y2="874.0" stroke="#BFE7FF" stroke-width="1.5"/><text x="74" y="878" font-family="DejaVu Sans Mono, Liberation Mono, monospace" font-size="12" font-weight="bold" fill="#BFE7FF" text-anchor="end" opacity="1">FINAL</text><circle cx="96" cy="833.8" r="6.5" fill="#BFE7FF" filter="url(#glow)"/><rect x="152" y="807.8000000000001" width="168" height="52" fill="rgba(8,14,22,0.50)" rx="3"/><path d="M 152 821.8000000000001 V 807.8000000000001 H 166" stroke="#BFE7FF" stroke-width="1.5" fill="none" opacity="0.7"/><path d="M 306 807.8000000000001 H 320 V 821.8000000000001" stroke="#BFE7FF" stroke-width="1.5" fill="none" opacity="0.7"/><path d="M 320 845.8000000000001 V 859.8000000000001 H 306" stroke="#BFE7FF" stroke-width="1.5" fill="none" opacity="0.7"/><path d="M 166 859.8000000000001 H 152 V 845.8000000000001" stroke="#BFE7FF" stroke-width="1.5" fill="none" opacity="0.7"/><text x="292" y="842.8000000000001" font-family="DejaVu Sans Mono, Liberation Mono, monospace" font-size="30" font-weight="bold" fill="#BFE7FF" text-anchor="end" opacity="1" filter="url(#glow)">31</text><text x="296" y="840.8000000000001" font-family="DejaVu Sans Mono, Liberation Mono, monospace" font-size="14" fill="rgba(191,231,255,0.55)" text-anchor="start" opacity="1">M</text></g><rect x="1588" y="282" width="268" height="168" fill="rgba(8,14,22,0.50)" rx="3"/><path d="M 1588 296 V 282 H 1602" stroke="#BFE7FF" stroke-width="1.5" fill="none" opacity="0.7"/><path d="M 1842 282 H 1856 V 296" stroke="#BFE7FF" stroke-width="1.5" fill="none" opacity="0.7"/><path d="M 1856 436 V 450 H 1842" stroke="#BFE7FF" stroke-width="1.5" fill="none" opacity="0.7"/><path d="M 1602 450 H 1588 V 436" stroke="#BFE7FF" stroke-width="1.5" fill="none" opacity="0.7"/><text x="1604" y="312" font-family="DejaVu Sans Mono, Liberation Mono, monospace" font-size="14" fill="rgba(191,231,255,0.30)" text-anchor="start" opacity="1">VELOCITY</text><text x="1838" y="348" font-family="DejaVu Sans Mono, Liberation Mono, monospace" font-size="38" font-weight="bold" fill="#BFE7FF" text-anchor="end" opacity="1" filter="url(#glow)">2.5</text><text x="1838" y="372" font-family="DejaVu Sans Mono, Liberation Mono, monospace" font-size="14" fill="rgba(191,231,255,0.55)" text-anchor="end" opacity="1">M/S TOTAL</text><text x="1604" y="407" font-family="DejaVu Sans Mono, Liberation Mono, monospace" font-size="14" fill="rgba(191,231,255,0.30)" text-anchor="start" opacity="1">V-SPD</text><rect x="1666" y="395" width="120" height="13" fill="none" stroke="rgba(191,231,255,0.55)" stroke-width="1"/><rect x="1666" y="395" width="48.0" height="13" fill="#7CE0A2" opacity="0.85"/><text x="1838" y="407" font-family="DejaVu Sans Mono, Liberation Mono, monospace" font-size="16" font-weight="bold" fill="#7CE0A2" text-anchor="end" opacity="1">-2.4</text><text x="1604" y="435" font-family="DejaVu Sans Mono, Liberation Mono, monospace" font-size="14" fill="rgba(191,231,255,0.30)" text-anchor="start" opacity="1">H-SPD</text><rect x="1666" y="423" width="120" height="13" fill="none" stroke="rgba(191,231,255,0.55)" stroke-width="1"/><rect x="1666" y="423" width="12.0" height="13" fill="#BFE7FF" opacity="0.85"/><text x="1838" y="435" font-family="DejaVu Sans Mono, Liberation Mono, monospace" font-size="16" font-weight="bold" fill="#BFE7FF" text-anchor="end" opacity="1">0.6</text><rect x="1588" y="470" width="268" height="150" fill="rgba(8,14,22,0.50)" rx="3"/><path d="M 1588 484 V 470 H 1602" stroke="#BFE7FF" stroke-width="1.5" fill="none" opacity="0.7"/><path d="M 1842 470 H 1856 V 484" stroke="#BFE7FF" stroke-width="1.5" fill="none" opacity="0.7"/><path d="M 1856 606 V 620 H 1842" stroke="#BFE7FF" stroke-width="1.5" fill="none" opacity="0.7"/><path d="M 1602 620 H 1588 V 606" stroke="#BFE7FF" stroke-width="1.5" fill="none" opacity="0.7"/><text x="1604" y="500" font-family="DejaVu Sans Mono, Liberation Mono, monospace" font-size="14" fill="rgba(191,231,255,0.30)" text-anchor="start" opacity="1">SURFACE TEMP · NADIR</text><text x="1776" y="544" font-family="DejaVu Sans Mono, Liberation Mono, monospace" font-size="38" font-weight="bold" fill="#BFE7FF" text-anchor="end" opacity="1" filter="url(#glow)">-18°C</text><rect x="1797" y="530" width="18" height="4" fill="rgba(191,231,255,0.55)"/><path d="M1604.0 579.4 L1625.5 579.4 L1646.9 579.7 L1668.4 579.4 L1689.8 579.4 L1711.3 579.1 L1732.7 579.4 L1754.2 579.4 L1775.6 579.7 L1797.1 579.4 L1818.5 579.4 L1840.0 579.4 " stroke="#BFE7FF" stroke-width="1.5" fill="none" opacity="0.8"/><line x1="1604" y1="592" x2="1840" y2="592" stroke="rgba(191,231,255,0.55)" stroke-width="0.7" opacity="0.5"/><text x="1604" y="612" font-family="DejaVu Sans Mono, Liberation Mono, monospace" font-size="12" fill="rgba(191,231,255,0.30)" text-anchor="start" opacity="1">SUN 10.3° — LONG SHADOWS, GOOD CONTRAST</text><g opacity="0.9"><circle cx="285" cy="905" r="64" fill="rgba(8,14,22,0.50)" stroke="rgba(191,231,255,0.55)" stroke-width="1.5"/><line x1="230.6" y1="907.0" x2="339.4" y2="907.0" stroke="#BFE7FF" stroke-width="1.5"/><line x1="262.6" y1="921.0" x2="307.4" y2="921.0" stroke="rgba(191,231,255,0.55)" stroke-width="1" stroke-dasharray="4 4"/><circle cx="307" cy="887" r="9" fill="none" stroke="#FFB75C" stroke-width="1.5"/><path d="M 301 881 l 12 12 M 313 881 l -12 12" stroke="#FFB75C" stroke-width="1.2"/><path d="M 285 905 l 0 39.68 M 285 944.68 l -6 -10 M 285 944.68 l 6 -10" stroke="#7CE0A2" stroke-width="2"/><text x="285" y="993" font-family="DejaVu Sans Mono, Liberation Mono, monospace" font-size="13" fill="rgba(191,231,255,0.30)" text-anchor="middle" opacity="1">PITCH -2°</text></g><path d="M 630 999 h 10 l 5 7 l -5 7 h -10 Z" fill="#7CE0A2" opacity="0.9"/><text x="654" y="1012" font-family="DejaVu Sans Mono, Liberation Mono, monospace" font-size="19" fill="#7CE0A2" text-anchor="start" opacity="1" filter="url(#glow)">RADIO: "30 METERS — DOWN AT 2½ — DUST VISIBLE — TRUST THE TAPE."</text><rect x="0" y="1054" width="1920" height="26" fill="rgba(0,0,0,0.55)"/><text x="12" y="1072" font-family="DejaVu Sans Mono, Liberation Mono, monospace" font-size="13" fill="rgba(160,180,200,0.65)" text-anchor="start" opacity="1">MOCKUP 03 · FINAL · 31 m AGL, camera ~18° below horizon, 60° hFOV · approach furniture retired; big docked digits for the dust-blind beat · ballistic dust sheets (no billowing — vacuum) · horizon straight at this height</text></svg>