<svg xmlns="http://www.w3.org/2000/svg" width="1920" height="1080" viewBox="0 0 1920 1080">
<defs>
  <filter id="b2"><feGaussianBlur stdDeviation="2"/></filter>
  <filter id="b4"><feGaussianBlur stdDeviation="4"/></filter>
  <filter id="b9"><feGaussianBlur stdDeviation="9"/></filter>
  <filter id="b18"><feGaussianBlur stdDeviation="18"/></filter>
  <filter id="b40" x="-60%" y="-60%" width="220%" height="220%"><feGaussianBlur stdDeviation="40"/></filter>
  <filter id="glow" x="-40%" y="-40%" width="180%" height="180%">
    <feGaussianBlur stdDeviation="1.4" result="g"/>
    <feMerge><feMergeNode in="g"/><feMergeNode in="SourceGraphic"/></feMerge>
  </filter>
  <filter id="regolith" x="0" y="0" width="100%" height="100%">
    <feTurbulence type="fractalNoise" baseFrequency="0.011" numOctaves="5" seed="11" result="n"/>
    <feColorMatrix in="n" type="matrix" values="0 0 0 0 0.62  0 0 0 0 0.61  0 0 0 0 0.60  0 0 0 0.9 0"/>
  </filter>
  <filter id="regolithFine" x="0" y="0" width="100%" height="100%">
    <feTurbulence type="fractalNoise" baseFrequency="0.05" numOctaves="4" seed="29" result="n"/>
    <feColorMatrix in="n" type="matrix" values="0 0 0 0 0.62  0 0 0 0 0.61  0 0 0 0 0.60  0 0 0 0.9 0"/>
  </filter>
  
</defs>
<rect width="1920" height="1080" fill="#000204"/><g transform="rotate(90 1240 250)"><g><circle cx="1240" cy="250" r="55.1" fill="#7FB4FF" opacity="0.10" filter="url(#b18)"/><clipPath id="earthClip5"><circle cx="1240" cy="250" r="38"/></clipPath><g clip-path="url(#earthClip5)"><circle cx="1240" cy="250" r="38" fill="#2E6FD8"/><circle cx="1249.5" cy="240.5" r="36.1" fill="#5FA8F0" opacity="0.5" filter="url(#b9)"/><ellipse cx="1234.0" cy="235.0" rx="10.0" ry="8.2" fill="#7A8C5A" opacity="0.55" filter="url(#b4)" transform="rotate(7.7 1240 250)"/><ellipse cx="1227.4" cy="241.8" rx="11.8" ry="9.4" fill="#7A8C5A" opacity="0.55" filter="url(#b4)" transform="rotate(20.6 1240 250)"/><ellipse cx="1242.9" cy="234.8" rx="13.4" ry="5.4" fill="#7A8C5A" opacity="0.55" filter="url(#b4)" transform="rotate(41.9 1240 250)"/><ellipse cx="1232.0" cy="274.3" rx="14.7" ry="4.4" fill="#FFFFFF" opacity="0.72" filter="url(#b2)" transform="rotate(-12.3 1232.0 274.3)"/><ellipse cx="1262.5" cy="252.7" rx="13.8" ry="3.3" fill="#FFFFFF" opacity="0.54" filter="url(#b2)" transform="rotate(-1.5 1262.5 252.7)"/><ellipse cx="1247.0" cy="249.6" rx="12.3" ry="4.6" fill="#FFFFFF" opacity="0.60" filter="url(#b2)" transform="rotate(-4.6 1247.0 249.6)"/><ellipse cx="1247.7" cy="249.3" rx="15.8" ry="3.2" fill="#FFFFFF" opacity="0.76" filter="url(#b2)" transform="rotate(11.1 1247.7 249.3)"/><ellipse cx="1250.6" cy="239.9" rx="20.6" ry="4.1" fill="#FFFFFF" opacity="0.54" filter="url(#b2)" transform="rotate(6.8 1250.6 239.9)"/><ellipse cx="1232.1" cy="245.8" rx="20.3" ry="4.0" fill="#FFFFFF" opacity="0.50" filter="url(#b2)" transform="rotate(21.6 1232.1 245.8)"/><circle cx="1189.3" cy="250" r="54.0" fill="#000208" opacity="0.96" filter="url(#b2)"/></g><circle cx="1240" cy="250" r="38.8" fill="none" stroke="#9FD0FF" stroke-width="1.2" opacity="0.45" filter="url(#b2)"/></g></g><clipPath id="gnd123"><circle cx="960" cy="901004" r="900000"/></clipPath><g clip-path="url(#gnd123)"><linearGradient id="gfade123" x1="0" y1="0" x2="0" y2="1">
    <stop offset="0" stop-color="#77777C"/><stop offset="0.25" stop-color="#8B8B90"/><stop offset="1" stop-color="#97969B"/></linearGradient><rect x="0" y="1004" width="1920" height="76" fill="url(#gfade123)"/><rect x="0" y="1004" width="1920" height="76" filter="url(#regolith)" opacity="0.42"/><rect x="0" y="1038.2" width="1920" height="41.8" filter="url(#regolithFine)" opacity="0.30"/><path d="M1500.3 1094.0 L1582.0 1221.9 L1420.3 1274.8 L1280.8 1218.1 L1155.3 1218.9 L1111.0 1135.1 L1028.3 1035.4 L1159.2 972.4 L1267.9 905.0 L1374.2 985.8 L1581.6 966.3 L1529.8 1094.0 Z" fill="#5E5F66" opacity="0.5" filter="url(#b18)"/><path d="M518.2 1044.0 L574.5 1132.1 L435.3 1124.8 L367.1 1128.6 L291.8 1120.6 L178.0 1087.5 L270.7 1020.0 L281.3 958.7 L366.2 955.0 L468.4 911.0 L484.7 997.4 L569.7 1044.0 Z" fill="#66676E" opacity="0.45" filter="url(#b18)"/><ellipse cx="920.2" cy="1026.9" rx="23.1" ry="2.4" fill="#000" opacity="0.31"/><clipPath id="cr123g0"><ellipse cx="951.0" cy="1026.9" rx="14.4" ry="4.5"/></clipPath><g clip-path="url(#cr123g0)"><ellipse cx="964.0" cy="1026.9" rx="14.4" ry="4.5" fill="#0a0a0c" opacity="0.69"/><ellipse cx="928.0" cy="1026.9" rx="14.4" ry="4.5" fill="#F2EEE6" opacity="0.34"/></g><path d="M 951.0 1022.4 A 14.4 4.5 0 0 1 951.0 1031.5" stroke="#EDE9E0" stroke-width="1.00" fill="none" opacity="0.42"/><path d="M 951.0 1022.4 A 14.4 4.5 0 0 0 951.0 1031.5" stroke="#1c1c20" stroke-width="0.80" fill="none" opacity="0.25"/><ellipse cx="1369.3" cy="1081.5" rx="104.0" ry="18.1" fill="#000" opacity="0.33" filter="url(#b2)"/><clipPath id="cr123g1"><ellipse cx="1505.8" cy="1081.5" rx="60.1" ry="34.8"/></clipPath><g clip-path="url(#cr123g1)"><ellipse cx="1559.1" cy="1081.5" rx="60.1" ry="34.8" fill="#0a0a0c" opacity="0.71"/><ellipse cx="1409.6" cy="1081.5" rx="60.1" ry="34.8" fill="#F2EEE6" opacity="0.36"/></g><path d="M 1505.8 1046.8 A 60.1 34.8 0 0 1 1505.8 1116.3" stroke="#EDE9E0" stroke-width="3.31" fill="none" opacity="0.44"/><path d="M 1505.8 1046.8 A 60.1 34.8 0 0 0 1505.8 1116.3" stroke="#1c1c20" stroke-width="2.41" fill="none" opacity="0.26"/><clipPath id="cr123g2"><ellipse cx="1134.4" cy="1009.1" rx="3.4" ry="0.8"/></clipPath><g clip-path="url(#cr123g2)"><ellipse cx="1137.6" cy="1009.1" rx="3.4" ry="0.8" fill="#0a0a0c" opacity="0.65"/><ellipse cx="1128.9" cy="1009.1" rx="3.4" ry="0.8" fill="#F2EEE6" opacity="0.32"/></g><clipPath id="cr123g3"><ellipse cx="1307.4" cy="1053.0" rx="3.1" ry="1.4"/></clipPath><g clip-path="url(#cr123g3)"><ellipse cx="1310.6" cy="1053.0" rx="3.1" ry="1.4" fill="#0a0a0c" opacity="0.58"/><ellipse cx="1302.4" cy="1053.0" rx="3.1" ry="1.4" fill="#F2EEE6" opacity="0.27"/></g><ellipse cx="466.4" cy="1074.4" rx="27.8" ry="4.5" fill="#000" opacity="0.30"/><clipPath id="cr123g4"><ellipse cx="502.9" cy="1074.4" rx="16.1" ry="8.7"/></clipPath><g clip-path="url(#cr123g4)"><ellipse cx="517.8" cy="1074.4" rx="16.1" ry="8.7" fill="#0a0a0c" opacity="0.67"/><ellipse cx="477.2" cy="1074.4" rx="16.1" ry="8.7" fill="#F2EEE6" opacity="0.33"/></g><path d="M 502.9 1065.7 A 16.1 8.7 0 0 1 502.9 1083.2" stroke="#EDE9E0" stroke-width="1.00" fill="none" opacity="0.41"/><path d="M 502.9 1065.7 A 16.1 8.7 0 0 0 502.9 1083.2" stroke="#1c1c20" stroke-width="0.80" fill="none" opacity="0.25"/><ellipse cx="1120.9" cy="1017.4" rx="24.6" ry="2.0" fill="#000" opacity="0.28"/><clipPath id="cr123g5"><ellipse cx="1153.3" cy="1017.4" rx="14.2" ry="3.8"/></clipPath><g clip-path="url(#cr123g5)"><ellipse cx="1166.9" cy="1017.4" rx="14.2" ry="3.8" fill="#0a0a0c" opacity="0.63"/><ellipse cx="1130.5" cy="1017.4" rx="14.2" ry="3.8" fill="#F2EEE6" opacity="0.31"/></g><path d="M 1153.3 1013.6 A 14.2 3.8 0 0 1 1153.3 1021.2" stroke="#EDE9E0" stroke-width="1.00" fill="none" opacity="0.39"/><path d="M 1153.3 1013.6 A 14.2 3.8 0 0 0 1153.3 1021.2" stroke="#1c1c20" stroke-width="0.80" fill="none" opacity="0.23"/><ellipse cx="1766.1" cy="1028.6" rx="12.2" ry="1.4" fill="#000" opacity="0.26"/><clipPath id="cr123g6"><ellipse cx="1782.7" cy="1028.6" rx="8.3" ry="2.7"/></clipPath><g clip-path="url(#cr123g6)"><ellipse cx="1790.9" cy="1028.6" rx="8.3" ry="2.7" fill="#0a0a0c" opacity="0.60"/><ellipse cx="1769.4" cy="1028.6" rx="8.3" ry="2.7" fill="#F2EEE6" opacity="0.29"/></g><path d="M 1782.7 1025.9 A 8.3 2.7 0 0 1 1782.7 1031.3" stroke="#EDE9E0" stroke-width="1.00" fill="none" opacity="0.37"/><path d="M 1782.7 1025.9 A 8.3 2.7 0 0 0 1782.7 1031.3" stroke="#1c1c20" stroke-width="0.80" fill="none" opacity="0.22"/><ellipse cx="1602.8" cy="1049.5" rx="13.2" ry="1.7" fill="#000" opacity="0.27"/><clipPath id="cr123g7"><ellipse cx="1620.2" cy="1049.5" rx="7.7" ry="3.3"/></clipPath><g clip-path="url(#cr123g7)"><ellipse cx="1627.7" cy="1049.5" rx="7.7" ry="3.3" fill="#0a0a0c" opacity="0.61"/><ellipse cx="1607.9" cy="1049.5" rx="7.7" ry="3.3" fill="#F2EEE6" opacity="0.29"/></g><path d="M 1620.2 1046.2 A 7.7 3.3 0 0 1 1620.2 1052.7" stroke="#EDE9E0" stroke-width="1.00" fill="none" opacity="0.37"/><path d="M 1620.2 1046.2 A 7.7 3.3 0 0 0 1620.2 1052.7" stroke="#1c1c20" stroke-width="0.80" fill="none" opacity="0.22"/><clipPath id="cr123g8"><ellipse cx="1146.4" cy="1040.4" rx="2.1" ry="0.8"/></clipPath><g clip-path="url(#cr123g8)"><ellipse cx="1148.4" cy="1040.4" rx="2.1" ry="0.8" fill="#0a0a0c" opacity="0.63"/><ellipse cx="1143.0" cy="1040.4" rx="2.1" ry="0.8" fill="#F2EEE6" opacity="0.31"/></g><ellipse cx="1667.4" cy="1037.3" rx="36.1" ry="4.0" fill="#000" opacity="0.31"/><clipPath id="cr123g9"><ellipse cx="1714.8" cy="1037.3" rx="20.9" ry="7.6"/></clipPath><g clip-path="url(#cr123g9)"><ellipse cx="1733.7" cy="1037.3" rx="20.9" ry="7.6" fill="#0a0a0c" opacity="0.69"/><ellipse cx="1681.4" cy="1037.3" rx="20.9" ry="7.6" fill="#F2EEE6" opacity="0.35"/></g><path d="M 1714.8 1029.6 A 20.9 7.6 0 0 1 1714.8 1044.9" stroke="#EDE9E0" stroke-width="1.15" fill="none" opacity="0.43"/><path d="M 1714.8 1029.6 A 20.9 7.6 0 0 0 1714.8 1044.9" stroke="#1c1c20" stroke-width="0.84" fill="none" opacity="0.26"/><ellipse cx="785.0" cy="1054.6" rx="5.8" ry="1.0" fill="#000" opacity="0.32"/><clipPath id="cr123g10"><ellipse cx="793.1" cy="1054.6" rx="4.2" ry="1.9"/></clipPath><g clip-path="url(#cr123g10)"><ellipse cx="796.8" cy="1054.6" rx="4.2" ry="1.9" fill="#0a0a0c" opacity="0.70"/><ellipse cx="786.4" cy="1054.6" rx="4.2" ry="1.9" fill="#F2EEE6" opacity="0.35"/></g><ellipse cx="571.4" cy="1073.7" rx="50.5" ry="9.7" fill="#000" opacity="0.32"/><clipPath id="cr123g11"><ellipse cx="640.4" cy="1073.7" rx="34.4" ry="18.6"/></clipPath><g clip-path="url(#cr123g11)"><ellipse cx="671.4" cy="1073.7" rx="34.4" ry="18.6" fill="#0a0a0c" opacity="0.69"/><ellipse cx="585.4" cy="1073.7" rx="34.4" ry="18.6" fill="#F2EEE6" opacity="0.35"/></g><path d="M 640.4 1055.1 A 34.4 18.6 0 0 1 640.4 1092.3" stroke="#EDE9E0" stroke-width="1.89" fill="none" opacity="0.43"/><path d="M 640.4 1055.1 A 34.4 18.6 0 0 0 640.4 1092.3" stroke="#1c1c20" stroke-width="1.38" fill="none" opacity="0.26"/><ellipse cx="730.5" cy="1016.6" rx="10.3" ry="0.8" fill="#000" opacity="0.32"/><clipPath id="cr123g12"><ellipse cx="744.1" cy="1016.6" rx="6.0" ry="1.6"/></clipPath><g clip-path="url(#cr123g12)"><ellipse cx="749.4" cy="1016.6" rx="6.0" ry="1.6" fill="#0a0a0c" opacity="0.70"/><ellipse cx="734.5" cy="1016.6" rx="6.0" ry="1.6" fill="#F2EEE6" opacity="0.35"/></g><path d="M 744.1 1015.0 A 6.0 1.6 0 0 1 744.1 1018.1" stroke="#EDE9E0" stroke-width="1.00" fill="none" opacity="0.43"/><path d="M 744.1 1015.0 A 6.0 1.6 0 0 0 744.1 1018.1" stroke="#1c1c20" stroke-width="0.80" fill="none" opacity="0.26"/><ellipse cx="319.5" cy="1052.6" rx="22.8" ry="3.0" fill="#000" opacity="0.32"/><clipPath id="cr123g13"><ellipse cx="349.5" cy="1052.6" rx="13.3" ry="5.8"/></clipPath><g clip-path="url(#cr123g13)"><ellipse cx="361.2" cy="1052.6" rx="13.3" ry="5.8" fill="#0a0a0c" opacity="0.71"/><ellipse cx="328.3" cy="1052.6" rx="13.3" ry="5.8" fill="#F2EEE6" opacity="0.36"/></g><path d="M 349.5 1046.7 A 13.3 5.8 0 0 1 349.5 1058.4" stroke="#EDE9E0" stroke-width="1.00" fill="none" opacity="0.44"/><path d="M 349.5 1046.7 A 13.3 5.8 0 0 0 349.5 1058.4" stroke="#1c1c20" stroke-width="0.80" fill="none" opacity="0.26"/><ellipse cx="1108.0" cy="1039.7" rx="29.8" ry="3.4" fill="#000" opacity="0.26"/><clipPath id="cr123g14"><ellipse cx="1147.2" cy="1039.7" rx="17.3" ry="6.5"/></clipPath><g clip-path="url(#cr123g14)"><ellipse cx="1164.2" cy="1039.7" rx="17.3" ry="6.5" fill="#0a0a0c" opacity="0.60"/><ellipse cx="1119.5" cy="1039.7" rx="17.3" ry="6.5" fill="#F2EEE6" opacity="0.29"/></g><path d="M 1147.2 1033.1 A 17.3 6.5 0 0 1 1147.2 1046.2" stroke="#EDE9E0" stroke-width="1.00" fill="none" opacity="0.37"/><path d="M 1147.2 1033.1 A 17.3 6.5 0 0 0 1147.2 1046.2" stroke="#1c1c20" stroke-width="0.80" fill="none" opacity="0.22"/><clipPath id="cr123g15"><ellipse cx="1074.6" cy="1072.0" rx="2.9" ry="1.6"/></clipPath><g clip-path="url(#cr123g15)"><ellipse cx="1077.4" cy="1072.0" rx="2.9" ry="1.6" fill="#0a0a0c" opacity="0.60"/><ellipse cx="1069.9" cy="1072.0" rx="2.9" ry="1.6" fill="#F2EEE6" opacity="0.29"/></g><ellipse cx="687.0" cy="1068.3" rx="31.0" ry="5.4" fill="#000" opacity="0.27"/><clipPath id="cr123g16"><ellipse cx="728.8" cy="1068.3" rx="20.0" ry="10.3"/></clipPath><g clip-path="url(#cr123g16)"><ellipse cx="748.4" cy="1068.3" rx="20.0" ry="10.3" fill="#0a0a0c" opacity="0.61"/><ellipse cx="696.8" cy="1068.3" rx="20.0" ry="10.3" fill="#F2EEE6" opacity="0.29"/></g><path d="M 728.8 1058.0 A 20.0 10.3 0 0 1 728.8 1078.6" stroke="#EDE9E0" stroke-width="1.10" fill="none" opacity="0.37"/><path d="M 728.8 1058.0 A 20.0 10.3 0 0 0 728.8 1078.6" stroke="#1c1c20" stroke-width="0.80" fill="none" opacity="0.22"/><clipPath id="cr123g17"><ellipse cx="1039.7" cy="1007.3" rx="2.0" ry="0.4"/></clipPath><g clip-path="url(#cr123g17)"><ellipse cx="1041.6" cy="1007.3" rx="2.0" ry="0.4" fill="#0a0a0c" opacity="0.63"/><ellipse cx="1036.5" cy="1007.3" rx="2.0" ry="0.4" fill="#F2EEE6" opacity="0.31"/></g><ellipse cx="309.1" cy="1070.4" rx="6.5" ry="1.4" fill="#000" opacity="0.29"/><clipPath id="cr123g18"><ellipse cx="318.5" cy="1070.4" rx="5.2" ry="2.7"/></clipPath><g clip-path="url(#cr123g18)"><ellipse cx="323.3" cy="1070.4" rx="5.2" ry="2.7" fill="#0a0a0c" opacity="0.65"/><ellipse cx="310.2" cy="1070.4" rx="5.2" ry="2.7" fill="#F2EEE6" opacity="0.32"/></g><path d="M 318.5 1067.7 A 5.2 2.7 0 0 1 318.5 1073.1" stroke="#EDE9E0" stroke-width="1.00" fill="none" opacity="0.40"/><path d="M 318.5 1067.7 A 5.2 2.7 0 0 0 318.5 1073.1" stroke="#1c1c20" stroke-width="0.80" fill="none" opacity="0.24"/><ellipse cx="540.0" cy="1043.1" rx="10.3" ry="1.3" fill="#000" opacity="0.26"/><clipPath id="cr123g19"><ellipse cx="553.7" cy="1043.1" rx="6.2" ry="2.4"/></clipPath><g clip-path="url(#cr123g19)"><ellipse cx="559.8" cy="1043.1" rx="6.2" ry="2.4" fill="#0a0a0c" opacity="0.60"/><ellipse cx="543.8" cy="1043.1" rx="6.2" ry="2.4" fill="#F2EEE6" opacity="0.29"/></g><path d="M 553.7 1040.7 A 6.2 2.4 0 0 1 553.7 1045.5" stroke="#EDE9E0" stroke-width="1.00" fill="none" opacity="0.37"/><path d="M 553.7 1040.7 A 6.2 2.4 0 0 0 553.7 1045.5" stroke="#1c1c20" stroke-width="0.80" fill="none" opacity="0.22"/><clipPath id="cr123g20"><ellipse cx="838.3" cy="1063.4" rx="3.0" ry="1.5"/></clipPath><g clip-path="url(#cr123g20)"><ellipse cx="840.9" cy="1063.4" rx="3.0" ry="1.5" fill="#0a0a0c" opacity="0.70"/><ellipse cx="833.5" cy="1063.4" rx="3.0" ry="1.5" fill="#F2EEE6" opacity="0.35"/></g><ellipse cx="1498.3" cy="1039.6" rx="6.4" ry="0.9" fill="#000" opacity="0.26"/><clipPath id="cr123g21"><ellipse cx="1507.3" cy="1039.6" rx="4.8" ry="1.8"/></clipPath><g clip-path="url(#cr123g21)"><ellipse cx="1512.1" cy="1039.6" rx="4.8" ry="1.8" fill="#0a0a0c" opacity="0.60"/><ellipse cx="1499.6" cy="1039.6" rx="4.8" ry="1.8" fill="#F2EEE6" opacity="0.28"/></g><ellipse cx="702.7" cy="1041.1" rx="17.7" ry="2.3" fill="#000" opacity="0.27"/><clipPath id="cr123g22"><ellipse cx="726.6" cy="1041.1" rx="11.7" ry="4.5"/></clipPath><g clip-path="url(#cr123g22)"><ellipse cx="738.1" cy="1041.1" rx="11.7" ry="4.5" fill="#0a0a0c" opacity="0.61"/><ellipse cx="708.0" cy="1041.1" rx="11.7" ry="4.5" fill="#F2EEE6" opacity="0.29"/></g><path d="M 726.6 1036.6 A 11.7 4.5 0 0 1 726.6 1045.6" stroke="#EDE9E0" stroke-width="1.00" fill="none" opacity="0.37"/><path d="M 726.6 1036.6 A 11.7 4.5 0 0 0 726.6 1045.6" stroke="#1c1c20" stroke-width="0.80" fill="none" opacity="0.22"/><ellipse cx="1118.9" cy="1040.4" rx="7.6" ry="1.1" fill="#000" opacity="0.25"/><clipPath id="cr123g23"><ellipse cx="1129.4" cy="1040.4" rx="5.5" ry="2.1"/></clipPath><g clip-path="url(#cr123g23)"><ellipse cx="1135.0" cy="1040.4" rx="5.5" ry="2.1" fill="#0a0a0c" opacity="0.59"/><ellipse cx="1120.6" cy="1040.4" rx="5.5" ry="2.1" fill="#F2EEE6" opacity="0.28"/></g><path d="M 1129.4 1038.3 A 5.5 2.1 0 0 1 1129.4 1042.5" stroke="#EDE9E0" stroke-width="1.00" fill="none" opacity="0.36"/><path d="M 1129.4 1038.3 A 5.5 2.1 0 0 0 1129.4 1042.5" stroke="#1c1c20" stroke-width="0.80" fill="none" opacity="0.21"/><clipPath id="cr123g24"><ellipse cx="1065.9" cy="1024.1" rx="2.1" ry="0.6"/></clipPath><g clip-path="url(#cr123g24)"><ellipse cx="1067.9" cy="1024.1" rx="2.1" ry="0.6" fill="#0a0a0c" opacity="0.61"/><ellipse cx="1062.6" cy="1024.1" rx="2.1" ry="0.6" fill="#F2EEE6" opacity="0.29"/></g><ellipse cx="650.9" cy="1075.2" rx="8.6" ry="1.4" fill="#000" opacity="0.25"/><clipPath id="cr123g25"><ellipse cx="662.2" cy="1075.2" rx="5.0" ry="2.7"/></clipPath><g clip-path="url(#cr123g25)"><ellipse cx="667.3" cy="1075.2" rx="5.0" ry="2.7" fill="#0a0a0c" opacity="0.58"/><ellipse cx="654.2" cy="1075.2" rx="5.0" ry="2.7" fill="#F2EEE6" opacity="0.27"/></g><ellipse cx="1527.6" cy="1069.3" rx="126.7" ry="19.8" fill="#000" opacity="0.26" filter="url(#b2)"/><clipPath id="cr123g26"><ellipse cx="1693.8" cy="1069.3" rx="73.2" ry="38.0"/></clipPath><g clip-path="url(#cr123g26)"><ellipse cx="1766.4" cy="1069.3" rx="73.2" ry="38.0" fill="#0a0a0c" opacity="0.59"/><ellipse cx="1576.7" cy="1069.3" rx="73.2" ry="38.0" fill="#F2EEE6" opacity="0.28"/></g><path d="M 1693.8 1031.3 A 73.2 38.0 0 0 1 1693.8 1107.3" stroke="#EDE9E0" stroke-width="4.03" fill="none" opacity="0.36"/><path d="M 1693.8 1031.3 A 73.2 38.0 0 0 0 1693.8 1107.3" stroke="#1c1c20" stroke-width="2.93" fill="none" opacity="0.22"/><ellipse cx="436.0" cy="1084.8" rx="30.1" ry="6.3" fill="#000" opacity="0.24"/><clipPath id="cr123g27"><ellipse cx="477.1" cy="1084.8" rx="20.4" ry="12.1"/></clipPath><g clip-path="url(#cr123g27)"><ellipse cx="497.8" cy="1084.8" rx="20.4" ry="12.1" fill="#0a0a0c" opacity="0.57"/><ellipse cx="444.5" cy="1084.8" rx="20.4" ry="12.1" fill="#F2EEE6" opacity="0.27"/></g><path d="M 477.1 1072.7 A 20.4 12.1 0 0 1 477.1 1097.0" stroke="#EDE9E0" stroke-width="1.12" fill="none" opacity="0.35"/><path d="M 477.1 1072.7 A 20.4 12.1 0 0 0 477.1 1097.0" stroke="#1c1c20" stroke-width="0.82" fill="none" opacity="0.21"/><ellipse cx="135.4" cy="1057.4" rx="10.3" ry="1.4" fill="#000" opacity="0.30"/><clipPath id="cr123g28"><ellipse cx="148.8" cy="1057.4" rx="5.9" ry="2.7"/></clipPath><g clip-path="url(#cr123g28)"><ellipse cx="154.3" cy="1057.4" rx="5.9" ry="2.7" fill="#0a0a0c" opacity="0.66"/><ellipse cx="139.3" cy="1057.4" rx="5.9" ry="2.7" fill="#F2EEE6" opacity="0.33"/></g><path d="M 148.8 1054.6 A 5.9 2.7 0 0 1 148.8 1060.1" stroke="#EDE9E0" stroke-width="1.00" fill="none" opacity="0.41"/><path d="M 148.8 1054.6 A 5.9 2.7 0 0 0 148.8 1060.1" stroke="#1c1c20" stroke-width="0.80" fill="none" opacity="0.25"/><ellipse cx="688.4" cy="1025.6" rx="37.9" ry="3.5" fill="#000" opacity="0.26"/><clipPath id="cr123g29"><ellipse cx="738.1" cy="1025.6" rx="21.9" ry="6.8"/></clipPath><g clip-path="url(#cr123g29)"><ellipse cx="759.7" cy="1025.6" rx="21.9" ry="6.8" fill="#0a0a0c" opacity="0.60"/><ellipse cx="703.1" cy="1025.6" rx="21.9" ry="6.8" fill="#F2EEE6" opacity="0.29"/></g><path d="M 738.1 1018.8 A 21.9 6.8 0 0 1 738.1 1032.4" stroke="#EDE9E0" stroke-width="1.21" fill="none" opacity="0.37"/><path d="M 738.1 1018.8 A 21.9 6.8 0 0 0 738.1 1032.4" stroke="#1c1c20" stroke-width="0.88" fill="none" opacity="0.22"/><ellipse cx="-12.2" cy="1066.2" rx="16.9" ry="2.6" fill="#000" opacity="0.27"/><clipPath id="cr123g30"><ellipse cx="10.0" cy="1066.2" rx="9.8" ry="4.9"/></clipPath><g clip-path="url(#cr123g30)"><ellipse cx="19.5" cy="1066.2" rx="9.8" ry="4.9" fill="#0a0a0c" opacity="0.62"/><ellipse cx="-5.7" cy="1066.2" rx="9.8" ry="4.9" fill="#F2EEE6" opacity="0.30"/></g><path d="M 10.0 1061.3 A 9.8 4.9 0 0 1 10.0 1071.1" stroke="#EDE9E0" stroke-width="1.00" fill="none" opacity="0.38"/><path d="M 10.0 1061.3 A 9.8 4.9 0 0 0 10.0 1071.1" stroke="#1c1c20" stroke-width="0.80" fill="none" opacity="0.23"/><ellipse cx="1187.6" cy="1077.5" rx="11.2" ry="1.9" fill="#000" opacity="0.29"/><clipPath id="cr123g31"><ellipse cx="1202.3" cy="1077.5" rx="6.5" ry="3.6"/></clipPath><g clip-path="url(#cr123g31)"><ellipse cx="1208.3" cy="1077.5" rx="6.5" ry="3.6" fill="#0a0a0c" opacity="0.66"/><ellipse cx="1191.9" cy="1077.5" rx="6.5" ry="3.6" fill="#F2EEE6" opacity="0.32"/></g><path d="M 1202.3 1073.9 A 6.5 3.6 0 0 1 1202.3 1081.1" stroke="#EDE9E0" stroke-width="1.00" fill="none" opacity="0.40"/><path d="M 1202.3 1073.9 A 6.5 3.6 0 0 0 1202.3 1081.1" stroke="#1c1c20" stroke-width="0.80" fill="none" opacity="0.24"/><ellipse cx="237.0" cy="1031.9" rx="17.4" ry="1.9" fill="#000" opacity="0.32"/><clipPath id="cr123g32"><ellipse cx="260.1" cy="1031.9" rx="10.5" ry="3.6"/></clipPath><g clip-path="url(#cr123g32)"><ellipse cx="269.4" cy="1031.9" rx="10.5" ry="3.6" fill="#0a0a0c" opacity="0.70"/><ellipse cx="243.3" cy="1031.9" rx="10.5" ry="3.6" fill="#F2EEE6" opacity="0.36"/></g><path d="M 260.1 1028.3 A 10.5 3.6 0 0 1 260.1 1035.4" stroke="#EDE9E0" stroke-width="1.00" fill="none" opacity="0.44"/><path d="M 260.1 1028.3 A 10.5 3.6 0 0 0 260.1 1035.4" stroke="#1c1c20" stroke-width="0.80" fill="none" opacity="0.26"/><ellipse cx="1271.2" cy="1062.3" rx="13.5" ry="2.0" fill="#000" opacity="0.31"/><clipPath id="cr123g33"><ellipse cx="1289.1" cy="1062.3" rx="8.1" ry="3.9"/></clipPath><g clip-path="url(#cr123g33)"><ellipse cx="1296.5" cy="1062.3" rx="8.1" ry="3.9" fill="#0a0a0c" opacity="0.68"/><ellipse cx="1276.2" cy="1062.3" rx="8.1" ry="3.9" fill="#F2EEE6" opacity="0.34"/></g><path d="M 1289.1 1058.3 A 8.1 3.9 0 0 1 1289.1 1066.2" stroke="#EDE9E0" stroke-width="1.00" fill="none" opacity="0.42"/><path d="M 1289.1 1058.3 A 8.1 3.9 0 0 0 1289.1 1066.2" stroke="#1c1c20" stroke-width="0.80" fill="none" opacity="0.25"/><ellipse cx="657.1" cy="1077.0" rx="76.1" ry="14.4" fill="#000" opacity="0.27" filter="url(#b2)"/><clipPath id="cr123g34"><ellipse cx="760.2" cy="1077.0" rx="49.9" ry="27.8"/></clipPath><g clip-path="url(#cr123g34)"><ellipse cx="808.4" cy="1077.0" rx="49.9" ry="27.8" fill="#0a0a0c" opacity="0.62"/><ellipse cx="680.3" cy="1077.0" rx="49.9" ry="27.8" fill="#F2EEE6" opacity="0.30"/></g><path d="M 760.2 1049.2 A 49.9 27.8 0 0 1 760.2 1104.8" stroke="#EDE9E0" stroke-width="2.75" fill="none" opacity="0.38"/><path d="M 760.2 1049.2 A 49.9 27.8 0 0 0 760.2 1104.8" stroke="#1c1c20" stroke-width="2.00" fill="none" opacity="0.23"/><ellipse cx="467.1" cy="1060.0" rx="8.8" ry="1.4" fill="#000" opacity="0.26"/><clipPath id="cr123g35"><ellipse cx="479.1" cy="1060.0" rx="5.9" ry="2.8"/></clipPath><g clip-path="url(#cr123g35)"><ellipse cx="484.8" cy="1060.0" rx="5.9" ry="2.8" fill="#0a0a0c" opacity="0.60"/><ellipse cx="469.7" cy="1060.0" rx="5.9" ry="2.8" fill="#F2EEE6" opacity="0.29"/></g><path d="M 479.1 1057.2 A 5.9 2.8 0 0 1 479.1 1062.8" stroke="#EDE9E0" stroke-width="1.00" fill="none" opacity="0.37"/><path d="M 479.1 1057.2 A 5.9 2.8 0 0 0 479.1 1062.8" stroke="#1c1c20" stroke-width="0.80" fill="none" opacity="0.22"/><ellipse cx="1430.9" cy="1076.1" rx="6.5" ry="1.1" fill="#000" opacity="0.32"/><clipPath id="cr123g36"><ellipse cx="1439.5" cy="1076.1" rx="3.8" ry="2.1"/></clipPath><g clip-path="url(#cr123g36)"><ellipse cx="1442.8" cy="1076.1" rx="3.8" ry="2.1" fill="#0a0a0c" opacity="0.70"/><ellipse cx="1433.4" cy="1076.1" rx="3.8" ry="2.1" fill="#F2EEE6" opacity="0.35"/></g><ellipse cx="513.5" cy="1064.1" rx="31.0" ry="4.6" fill="#000" opacity="0.28"/><clipPath id="cr123g37"><ellipse cx="554.1" cy="1064.1" rx="17.9" ry="8.9"/></clipPath><g clip-path="url(#cr123g37)"><ellipse cx="571.3" cy="1064.1" rx="17.9" ry="8.9" fill="#0a0a0c" opacity="0.63"/><ellipse cx="525.5" cy="1064.1" rx="17.9" ry="8.9" fill="#F2EEE6" opacity="0.31"/></g><path d="M 554.1 1055.2 A 17.9 8.9 0 0 1 554.1 1072.9" stroke="#EDE9E0" stroke-width="1.00" fill="none" opacity="0.39"/><path d="M 554.1 1055.2 A 17.9 8.9 0 0 0 554.1 1072.9" stroke="#1c1c20" stroke-width="0.80" fill="none" opacity="0.23"/><ellipse cx="1437.2" cy="1024.4" rx="8.7" ry="0.8" fill="#000" opacity="0.29"/><clipPath id="cr123g38"><ellipse cx="1448.6" cy="1024.4" rx="5.0" ry="1.5"/></clipPath><g clip-path="url(#cr123g38)"><ellipse cx="1453.3" cy="1024.4" rx="5.0" ry="1.5" fill="#0a0a0c" opacity="0.65"/><ellipse cx="1440.6" cy="1024.4" rx="5.0" ry="1.5" fill="#F2EEE6" opacity="0.32"/></g><path d="M 1448.6 1022.9 A 5.0 1.5 0 0 1 1448.6 1025.9" stroke="#EDE9E0" stroke-width="1.00" fill="none" opacity="0.40"/><path d="M 1448.6 1022.9 A 5.0 1.5 0 0 0 1448.6 1025.9" stroke="#1c1c20" stroke-width="0.80" fill="none" opacity="0.24"/><ellipse cx="919.2" cy="1047.2" rx="62.8" ry="7.9" fill="#000" opacity="0.26" filter="url(#b2)"/><clipPath id="cr123g39"><ellipse cx="1001.7" cy="1047.2" rx="36.6" ry="15.1"/></clipPath><g clip-path="url(#cr123g39)"><ellipse cx="1037.8" cy="1047.2" rx="36.6" ry="15.1" fill="#0a0a0c" opacity="0.60"/><ellipse cx="943.1" cy="1047.2" rx="36.6" ry="15.1" fill="#F2EEE6" opacity="0.29"/></g><path d="M 1001.7 1032.0 A 36.6 15.1 0 0 1 1001.7 1062.3" stroke="#EDE9E0" stroke-width="2.01" fill="none" opacity="0.37"/><path d="M 1001.7 1032.0 A 36.6 15.1 0 0 0 1001.7 1062.3" stroke="#1c1c20" stroke-width="1.46" fill="none" opacity="0.22"/><ellipse cx="1458.7" cy="1044.9" rx="3.9" ry="0.6" fill="#000" opacity="0.34"/><circle cx="1460.7" cy="1044.5" r="1.3" fill="#6E6E73"/><circle cx="1461.1" cy="1044.0" r="0.6" fill="#D9D2C8" opacity="0.8"/><ellipse cx="665.1" cy="1046.4" rx="9.9" ry="1.6" fill="#000" opacity="0.34"/><circle cx="670.3" cy="1045.4" r="3.5" fill="#6E6E73"/><circle cx="671.5" cy="1044.2" r="1.6" fill="#D9D2C8" opacity="0.8"/><ellipse cx="1543.4" cy="1056.8" rx="9.2" ry="1.4" fill="#000" opacity="0.34"/><circle cx="1548.2" cy="1055.8" r="3.2" fill="#6E6E73"/><circle cx="1549.4" cy="1054.7" r="1.4" fill="#D9D2C8" opacity="0.8"/><ellipse cx="162.7" cy="1060.3" rx="5.8" ry="0.9" fill="#000" opacity="0.34"/><circle cx="165.7" cy="1059.7" r="2.0" fill="#6E6E73"/><circle cx="166.4" cy="1059.0" r="0.9" fill="#D9D2C8" opacity="0.8"/><ellipse cx="776.3" cy="1081.6" rx="5.6" ry="0.9" fill="#000" opacity="0.34"/><circle cx="779.2" cy="1081.0" r="2.0" fill="#6E6E73"/><circle cx="779.9" cy="1080.3" r="0.9" fill="#D9D2C8" opacity="0.8"/><ellipse cx="1787.7" cy="1074.1" rx="5.6" ry="0.9" fill="#000" opacity="0.34"/><circle cx="1790.6" cy="1073.6" r="2.0" fill="#6E6E73"/><circle cx="1791.3" cy="1072.9" r="0.9" fill="#D9D2C8" opacity="0.8"/><ellipse cx="1795.3" cy="1069.0" rx="4.7" ry="0.7" fill="#000" opacity="0.34"/><circle cx="1797.8" cy="1068.5" r="1.6" fill="#6E6E73"/><circle cx="1798.3" cy="1067.9" r="0.7" fill="#D9D2C8" opacity="0.8"/><ellipse cx="1911.8" cy="1053.1" rx="11.3" ry="1.8" fill="#000" opacity="0.34"/><circle cx="1917.7" cy="1051.9" r="3.9" fill="#6E6E73"/><circle cx="1919.0" cy="1050.5" r="1.8" fill="#D9D2C8" opacity="0.8"/><ellipse cx="1637.4" cy="1059.2" rx="4.7" ry="0.7" fill="#000" opacity="0.34"/><circle cx="1639.9" cy="1058.7" r="1.6" fill="#6E6E73"/><circle cx="1640.5" cy="1058.1" r="0.7" fill="#D9D2C8" opacity="0.8"/><ellipse cx="716.3" cy="1072.4" rx="4.3" ry="0.7" fill="#000" opacity="0.34"/><circle cx="718.5" cy="1072.0" r="1.5" fill="#6E6E73"/><circle cx="719.0" cy="1071.5" r="0.7" fill="#D9D2C8" opacity="0.8"/><ellipse cx="1073.0" cy="1048.3" rx="8.6" ry="1.3" fill="#000" opacity="0.34"/><circle cx="1077.5" cy="1047.5" r="3.0" fill="#6E6E73"/><circle cx="1078.5" cy="1046.4" r="1.3" fill="#D9D2C8" opacity="0.8"/><ellipse cx="181.7" cy="1060.0" rx="3.8" ry="0.6" fill="#000" opacity="0.34"/><circle cx="183.7" cy="1059.6" r="1.3" fill="#6E6E73"/><circle cx="184.2" cy="1059.1" r="0.6" fill="#D9D2C8" opacity="0.8"/><ellipse cx="1395.0" cy="1040.1" rx="4.2" ry="0.7" fill="#000" opacity="0.34"/><circle cx="1397.2" cy="1039.7" r="1.5" fill="#6E6E73"/><circle cx="1397.7" cy="1039.1" r="0.7" fill="#D9D2C8" opacity="0.8"/><ellipse cx="1206.2" cy="1064.6" rx="3.5" ry="0.5" fill="#000" opacity="0.34"/><circle cx="1208.0" cy="1064.3" r="1.2" fill="#6E6E73"/><circle cx="1208.4" cy="1063.8" r="0.5" fill="#D9D2C8" opacity="0.8"/><ellipse cx="340.6" cy="1069.8" rx="7.5" ry="1.2" fill="#000" opacity="0.34"/><circle cx="344.5" cy="1069.0" r="2.6" fill="#6E6E73"/><circle cx="345.4" cy="1068.1" r="1.2" fill="#D9D2C8" opacity="0.8"/><ellipse cx="1905.8" cy="1079.2" rx="8.6" ry="1.4" fill="#000" opacity="0.34"/><circle cx="1910.3" cy="1078.3" r="3.0" fill="#6E6E73"/><circle cx="1911.3" cy="1077.2" r="1.4" fill="#D9D2C8" opacity="0.8"/><ellipse cx="1260.6" cy="1041.4" rx="4.0" ry="0.6" fill="#000" opacity="0.34"/><circle cx="1262.7" cy="1040.9" r="1.4" fill="#6E6E73"/><circle cx="1263.2" cy="1040.4" r="0.6" fill="#D9D2C8" opacity="0.8"/><ellipse cx="1591.0" cy="1050.7" rx="5.5" ry="0.9" fill="#000" opacity="0.34"/><circle cx="1593.9" cy="1050.1" r="1.9" fill="#6E6E73"/><circle cx="1594.6" cy="1049.4" r="0.9" fill="#D9D2C8" opacity="0.8"/><ellipse cx="1465.6" cy="1060.4" rx="10.3" ry="1.6" fill="#000" opacity="0.34"/><circle cx="1471.0" cy="1059.3" r="3.6" fill="#6E6E73"/><circle cx="1472.3" cy="1058.0" r="1.6" fill="#D9D2C8" opacity="0.8"/><ellipse cx="575.4" cy="1072.6" rx="5.4" ry="0.8" fill="#000" opacity="0.34"/><circle cx="578.2" cy="1072.0" r="1.9" fill="#6E6E73"/><circle cx="578.9" cy="1071.3" r="0.8" fill="#D9D2C8" opacity="0.8"/><ellipse cx="907.9" cy="1064.6" rx="3.4" ry="0.5" fill="#000" opacity="0.34"/><circle cx="909.7" cy="1064.2" r="1.2" fill="#6E6E73"/><circle cx="910.1" cy="1063.8" r="0.5" fill="#D9D2C8" opacity="0.8"/><ellipse cx="243.9" cy="1058.2" rx="10.2" ry="1.6" fill="#000" opacity="0.34"/><circle cx="249.3" cy="1057.2" r="3.6" fill="#6E6E73"/><circle cx="250.5" cy="1055.9" r="1.6" fill="#D9D2C8" opacity="0.8"/><ellipse cx="1689.4" cy="1054.5" rx="4.2" ry="0.7" fill="#000" opacity="0.34"/><circle cx="1691.6" cy="1054.1" r="1.5" fill="#6E6E73"/><circle cx="1692.1" cy="1053.6" r="0.7" fill="#D9D2C8" opacity="0.8"/><ellipse cx="1646.8" cy="1061.6" rx="7.8" ry="1.2" fill="#000" opacity="0.34"/><circle cx="1650.9" cy="1060.8" r="2.7" fill="#6E6E73"/><circle cx="1651.8" cy="1059.8" r="1.2" fill="#D9D2C8" opacity="0.8"/></g><path d="M 0 1004.5 A 900000 900000 0 0 1 1920 1004.5" stroke="#D6D6DA" stroke-width="1" fill="none" opacity="0.9"/><path d="M 0 1004 L 220 996 L 460 1002 L 700 992 L 980 1001 L 1300 995 L 1620 1002 L 1920 998 L 1920 1007 L 0 1007 Z" fill="#73737A"/><g fill="#000" opacity="0.7" filter="url(#b2)">
    <path d="M 870 1080 L 1010 1080 L 985 1030 L 925 1030 Z"/>
    <path d="M 700 1080 L 800 1080 L 905 1044 L 880 1038 Z"/>
    <path d="M 1080 1080 L 1180 1080 L 1005 1044 L 1030 1038 Z"/>
  </g><text x="960" y="60" font-family="DejaVu Sans Mono, Liberation Mono, monospace" font-size="22" font-weight="bold" fill="#BFE7FF" text-anchor="middle" opacity="1" filter="url(#glow)" letter-spacing="4">CONTACT · ENGINE STOP · T+11:50</text><text x="960" y="88" font-family="DejaVu Sans Mono, Liberation Mono, monospace" font-size="14" fill="rgba(191,231,255,0.55)" text-anchor="middle" opacity="1">TRANQUILITY BASE · 0.674° N  23.473° E · EARTH FIXED AT 66°, AZIMUTH 268° — IT NEVER MOVES</text><text x="1240" y="330" font-family="DejaVu Sans Mono, Liberation Mono, monospace" font-size="13" fill="rgba(191,231,255,0.30)" text-anchor="middle" opacity="1">EARTH · 384,400 KM · GIBBOUS 61%</text><rect x="96" y="700" width="392" height="246" fill="rgba(8,14,22,0.50)" rx="3"/><path d="M 96 714 V 700 H 110" stroke="#BFE7FF" stroke-width="1.5" fill="none" opacity="0.7"/><path d="M 474 700 H 488 V 714" stroke="#BFE7FF" stroke-width="1.5" fill="none" opacity="0.7"/><path d="M 488 932 V 946 H 474" stroke="#BFE7FF" stroke-width="1.5" fill="none" opacity="0.7"/><path d="M 110 946 H 96 V 932" stroke="#BFE7FF" stroke-width="1.5" fill="none" opacity="0.7"/><text x="120" y="736" font-family="DejaVu Sans Mono, Liberation Mono, monospace" font-size="15" fill="rgba(191,231,255,0.30)" text-anchor="start" opacity="1" letter-spacing="6">TOUCHDOWN</text><text x="120" y="766" font-family="DejaVu Sans Mono, Liberation Mono, monospace" font-size="14" fill="rgba(191,231,255,0.55)" text-anchor="start" opacity="1">VERTICAL AT CONTACT</text><text x="464" y="766" font-family="DejaVu Sans Mono, Liberation Mono, monospace" font-size="14" font-weight="bold" fill="#BFE7FF" text-anchor="end" opacity="1">-1.8 M/S</text><text x="120" y="791" font-family="DejaVu Sans Mono, Liberation Mono, monospace" font-size="14" fill="rgba(191,231,255,0.55)" text-anchor="start" opacity="1">TILT</text><text x="464" y="791" font-family="DejaVu Sans Mono, Liberation Mono, monospace" font-size="14" font-weight="bold" fill="#BFE7FF" text-anchor="end" opacity="1">2.1°</text><text x="120" y="816" font-family="DejaVu Sans Mono, Liberation Mono, monospace" font-size="14" fill="rgba(191,231,255,0.55)" text-anchor="start" opacity="1">DIST FROM PAD</text><text x="464" y="816" font-family="DejaVu Sans Mono, Liberation Mono, monospace" font-size="14" font-weight="bold" fill="#BFE7FF" text-anchor="end" opacity="1">412 M</text><text x="120" y="841" font-family="DejaVu Sans Mono, Liberation Mono, monospace" font-size="14" fill="rgba(191,231,255,0.55)" text-anchor="start" opacity="1">PEAK G (THE WALL)</text><text x="464" y="841" font-family="DejaVu Sans Mono, Liberation Mono, monospace" font-size="14" font-weight="bold" fill="#BFE7FF" text-anchor="end" opacity="1">2.9 G</text><text x="120" y="866" font-family="DejaVu Sans Mono, Liberation Mono, monospace" font-size="14" fill="rgba(191,231,255,0.55)" text-anchor="start" opacity="1">DESCENT</text><text x="464" y="866" font-family="DejaVu Sans Mono, Liberation Mono, monospace" font-size="14" font-weight="bold" fill="#BFE7FF" text-anchor="end" opacity="1">8:50</text><text x="120" y="891" font-family="DejaVu Sans Mono, Liberation Mono, monospace" font-size="14" fill="rgba(191,231,255,0.55)" text-anchor="start" opacity="1">MISSION</text><text x="464" y="891" font-family="DejaVu Sans Mono, Liberation Mono, monospace" font-size="14" font-weight="bold" fill="#BFE7FF" text-anchor="end" opacity="1">11:50</text><text x="120" y="926" font-family="DejaVu Sans Mono, Liberation Mono, monospace" font-size="20" font-weight="bold" fill="#7CE0A2" text-anchor="start" opacity="1" filter="url(#glow)">FEATHER · NEAR PAD</text><text x="1824" y="880" font-family="DejaVu Sans Mono, Liberation Mono, monospace" font-size="14" fill="rgba(191,231,255,0.55)" text-anchor="end" opacity="1">HOLD L — LONG-EXPOSURE: THE MILKY WAY</text><text x="1824" y="904" font-family="DejaVu Sans Mono, Liberation Mono, monospace" font-size="13" fill="rgba(191,231,255,0.30)" text-anchor="end" opacity="1">T — TIME-LAPSE: WATCH THE STARS WHEEL, EARTH HOLD STILL</text><text x="1824" y="928" font-family="DejaVu Sans Mono, Liberation Mono, monospace" font-size="13" fill="rgba(191,231,255,0.30)" text-anchor="end" opacity="1">N — NAMEPLATE PHOTO    V — STAND-UP VIEW</text><path d="M 630 999 h 10 l 5 7 l -5 7 h -10 Z" fill="#BFE7FF" opacity="0.9"/><text x="654" y="1012" font-family="DejaVu Sans Mono, Liberation Mono, monospace" font-size="19" fill="#BFE7FF" text-anchor="start" opacity="1" filter="url(#glow)">RADIO: "TRANQUILITY, WE COPY YOU DOWN. ENJOY THE VIEW."</text><rect x="0" y="1054" width="1920" height="26" fill="rgba(0,0,0,0.55)"/><text x="12" y="1072" font-family="DejaVu Sans Mono, Liberation Mono, monospace" font-size="13" fill="rgba(160,180,200,0.65)" text-anchor="start" opacity="1">MOCKUP 04 · STILLNESS · camera pitched up ~36° — Earth at her true 66° elevation · daylight exposure: black sky, no stars (hold L for the real night sky) · 3 s of silence before this card fades in</text></svg>