<svg xmlns="http://www.w3.org/2000/svg" width="1200" height="1200" viewBox="0 0 1200 1200">
  <defs>
    <linearGradient id="bg" x2="1" y2="1"><stop stop-color="#080912"/><stop offset="1" stop-color="#181326"/></linearGradient><linearGradient id="card" y2="1"><stop stop-color="#211b32"/><stop offset="1" stop-color="#0e101a"/></linearGradient><filter id="glow" x="-35%" y="-35%" width="170%" height="170%"><feGaussianBlur stdDeviation="3.5" result="b"/><feMerge><feMergeNode in="b"/><feMergeNode in="SourceGraphic"/></feMerge></filter>
    <style>.eyebrow{font:600 14px ui-monospace,SFMono-Regular,monospace;letter-spacing:3px;fill:#c598ed}.title{font:700 34px -apple-system,BlinkMacSystemFont,"Segoe UI",sans-serif;fill:#f7f2fb}.sub{font:400 15px -apple-system,BlinkMacSystemFont,"Segoe UI",sans-serif;fill:#aa9cb7}.name{font:650 21px -apple-system,BlinkMacSystemFont,"Segoe UI",sans-serif;fill:#f8f2fb}.note{font:500 12px ui-monospace,SFMono-Regular,monospace;letter-spacing:.9px;fill:#aa91bc}.card{fill:url(#card);stroke:#4b3860}.ship{fill:#d0b1e9;fill-opacity:.13;stroke:#e6cbff;stroke-width:1.25;stroke-linecap:round;stroke-linejoin:round;filter:url(#glow)}</style>
    <symbol id="falcon" viewBox="0 0 40 30"><path d="M35 8 L25 11 A11 11 0 1 0 25 19 L35 22 L31 17 H20 V13 H31 Z"/><path d="M20 13 L15 6 M20 17 L15 24 M13 15 H5 M24 20 L28 25 H33 Q35 23 33 21 M12 10 A6 6 0 0 0 12 20 M17 9 L20 5"/></symbol>
    <symbol id="xwing" viewBox="0 0 40 30"><path d="M36 15 L25 12 H13 L6 15 L13 18 H25 Z"/><path d="M24 12 L13 4 H8 L17 12 M24 18 L13 26 H8 L17 18 M21 12 L12 7 H7 M21 18 L12 23 H7 M12 4 L3 2 M12 7 L3 5 M12 26 L3 28 M12 23 L3 25"/></symbol>
    <symbol id="ywing" viewBox="0 0 40 30"><path d="M36 15 L29 10 H20 L15 15 L20 20 H29 Z"/><path d="M22 11 H7 Q4 8 7 6 H24 M22 19 H7 Q4 22 7 24 H24 M7 6 H3 M7 24 H3 M12 7 V11 M12 19 V23 M18 8 V12 M18 18 V22 M15 15 H8"/></symbol>
    <symbol id="tie" viewBox="0 0 40 30"><path d="M8 3 L4 8 V22 L8 27 H12 V3 Z M28 3 V27 H32 L36 22 V8 L32 3 Z"/><circle cx="20" cy="15" r="6"/><path d="M12 15 H14 M26 15 H28 M20 9 V21 M15 12 L25 18 M25 12 L15 18 M8 3 V27 M32 3 V27"/></symbol>
    <symbol id="destroyer" viewBox="0 0 40 30"><path d="M37 15 L4 3 L9 15 L4 27 Z"/><path d="M10 15 H33 M9 10 L28 15 L9 20 M12 12 H22 L19 9 H13 M12 18 H22 L19 21 H13 M14 13 V17 M18 13 V17"/><circle cx="12" cy="12" r="1"/><circle cx="12" cy="18" r="1"/></symbol>
    <symbol id="naboo" viewBox="0 0 40 30"><path d="M37 15 L24 11 H16 L10 15 L16 19 H24 Z"/><path d="M25 11 H14 Q11 8 14 6 H27 Q30 8 27 10 M25 19 H14 Q11 22 14 24 H27 Q30 22 27 20 M14 6 H5 M14 24 H5 M10 15 H3 M8 6 H2 M8 24 H2"/><circle cx="21" cy="15" r="2"/></symbol>
  </defs>
  <rect width="1200" height="1200" fill="url(#bg)"/><circle cx="150" cy="1080" r="330" fill="#5a2b80" opacity=".1"/>
  <text class="eyebrow" x="40" y="42">CHOOSE SHIP · STAR WARS</text><text class="title" x="40" y="82">Six unmistakable silhouettes</text><text class="sub" x="40" y="108">Every teleport uses a ship-centered blue hyperspace tunnel.</text>
  <g transform="translate(40 140)"><rect class="card" width="360" height="450" rx="15"/><use class="ship" href="#falcon" x="85" y="90" width="190" height="160"/><text class="name" x="24" y="365">Millennium Falcon</text><text class="note" x="24" y="398">CORELLIAN FREIGHTER</text></g>
  <g transform="translate(420 140)"><rect class="card" width="360" height="450" rx="15"/><use class="ship" href="#xwing" x="85" y="90" width="190" height="160"/><text class="name" x="24" y="365">X-wing</text><text class="note" x="24" y="398">REBEL STARFIGHTER</text></g>
  <g transform="translate(800 140)"><rect class="card" width="360" height="450" rx="15"/><use class="ship" href="#ywing" x="85" y="90" width="190" height="160"/><text class="name" x="24" y="365">Y-wing</text><text class="note" x="24" y="398">REBEL BOMBER</text></g>
  <g transform="translate(40 630)"><rect class="card" width="360" height="450" rx="15"/><use class="ship" href="#tie" x="85" y="90" width="190" height="160"/><text class="name" x="24" y="365">TIE Fighter</text><text class="note" x="24" y="398">IMPERIAL STARFIGHTER</text></g>
  <g transform="translate(420 630)"><rect class="card" width="360" height="450" rx="15"/><use class="ship" href="#destroyer" x="85" y="90" width="190" height="160"/><text class="name" x="24" y="365">Star Destroyer</text><text class="note" x="24" y="398">IMPERIAL DESTROYER</text></g>
  <g transform="translate(800 630)"><rect class="card" width="360" height="450" rx="15"/><use class="ship" href="#naboo" x="85" y="90" width="190" height="160"/><text class="name" x="24" y="365">Naboo Starfighter</text><text class="note" x="24" y="398">ROYAL STARFIGHTER</text></g>
</svg>
